<?xml version="1.0" standalone="no"?>
<!DOCTYPE svg PUBLIC "-//W3C//DTD SVG 1.1//EN" "http://www.w3.org/Graphics/SVG/1.1/DTD/svg11.dtd" >
<svg xmlns="http://www.w3.org/2000/svg">
<metadata></metadata>
<defs>
<font id="sujetaregular" horiz-adv-x="837" >
<font-face units-per-em="2048" ascent="1638" descent="-410" />
<missing-glyph horiz-adv-x="423" />
<glyph horiz-adv-x="2048" />
<glyph horiz-adv-x="2048" />
<glyph unicode="&#xd;" horiz-adv-x="423" />
<glyph unicode=" "  horiz-adv-x="423" />
<glyph unicode="&#x09;" horiz-adv-x="423" />
<glyph unicode="&#xa0;" horiz-adv-x="423" />
<glyph unicode="!" horiz-adv-x="378" d="M55 170q0 109 154 109q100 0 100 -168q0 -109 -153 -109q-100 0 -101 168zM55 518v752h256l-2 -752q0 -51 -38 -81.5t-89 -30.5q-53 0 -90 30.5t-37 81.5z" />
<glyph unicode="&#x22;" horiz-adv-x="563" d="M45 907v293q0 70 90 70q82 0 82 -68v-297q0 -68 -82 -67q-90 0 -90 69zM332 907v293q0 70 90 70q82 0 82 -68v-297q0 -68 -82 -67q-90 0 -90 69z" />
<glyph unicode="#" horiz-adv-x="1277" d="M29 451q0 90 69 90h164l78 211h-168q-68 0 -68 82q0 90 70 90h229l86 233q39 111 138 111q39 0 72.5 -23.5t33.5 -60.5q0 -14 -90 -260h211l86 233q39 111 137 111q39 0 73 -23.5t34 -60.5q0 -14 -90 -260q94 0 110 -4q51 -16 51 -86q0 -82 -67 -82h-156l-78 -211h156 q70 0 70 -90q0 -82 -68 -82h-221l-94 -260q-39 -109 -119 -109q-129 0 -129 76q0 14 102 293h-211l-94 -260q-39 -109 -119 -109q-129 0 -129 76q0 14 103 293q-12 0 -37 -2h-35q-100 0 -100 84zM504 541h209l78 211h-209z" />
<glyph unicode="$" horiz-adv-x="806" d="M43 608v426q0 111 166 111h49q33 -2 43 -2q0 53 33 89t86 36q55 0 88 -36t33 -89h149q72 0 72 -82q0 -84 -72 -84h-149v-252h155q29 0 49.5 -24.5t20.5 -53.5v-405q0 -82 -80 -103q-29 -6 -145 -6q0 -135 -115 -135q-127 0 -127 135h-180q-74 0 -74 84q0 82 74 82h180 v231h-186q-29 0 -49.5 25t-20.5 53zM233 831q0 -84 68 -102v248q-49 -4 -63 -55q-4 -23 -5 -91zM541 309q43 27 51 56q4 9 4 77q0 31 -55 70v-203z" />
<glyph unicode="%" horiz-adv-x="1271" d="M27 758l2 422q0 25 19.5 45t43.5 20h307q25 0 43.5 -20.5t18.5 -44.5v-420q0 -25 -17.5 -45.5t-42.5 -20.5h-309q-25 0 -45 19.5t-20 44.5zM180 840q0 -43 70 -43q59 0 59 43v264q0 45 -63 45q-66 0 -66 -45v-264zM311 82q0 25 183 522q172 467 206 553q45 111 138 111 q41 0 73.5 -23.5t32.5 -62.5q0 -12 -385 -1073q-40 -109 -153 -109q-37 0 -66 23.5t-29 58.5zM797 63l2 422q0 25 19.5 45.5t43.5 20.5h307q25 0 43.5 -20.5t18.5 -45.5v-419q0 -25 -17.5 -45.5t-42.5 -20.5h-309q-25 0 -45 19.5t-20 43.5zM950 145q0 -43 70 -43q59 0 59 43 v265q0 45 -63 45q-66 0 -66 -45v-265z" />
<glyph unicode="&#x26;" horiz-adv-x="935" d="M29 109v442q0 29 41 60.5t71 31.5q-31 0 -71.5 35t-40.5 63v416q0 41 31.5 75t72.5 34h549q72 0 72 -82q0 -84 -72 -84h-293q-102 0 -102 -70v-237q0 -72 141 -72h414q71 0 71 -94q0 -57 -57 -72q-16 -4 -102 -4v-442q0 -41 -30 -75t-71 -34h-524q-41 0 -70.5 34 t-29.5 75zM287 223q0 -74 125 -73q108 -1 108 73v328h-164q-29 0 -49 -20.5t-20 -49.5v-258z" />
<glyph unicode="'" horiz-adv-x="276" d="M45 907v293q0 70 90 70q82 0 82 -68v-297q0 -68 -82 -67q-90 0 -90 69z" />
<glyph unicode="(" horiz-adv-x="589" d="M27 -160v1317q0 41 31.5 75t72.5 34h379q29 0 50.5 -21.5t21.5 -50.5q0 -76 -113 -76q-20 0 -60 2t-61 2q-109 0 -108 -71v-1094q0 -29 28.5 -50.5t59.5 -21.5h188q29 0 49.5 -24.5t20.5 -55.5q0 -29 -19.5 -50t-48.5 -21h-379q-41 0 -76.5 32.5t-35.5 73.5z" />
<glyph unicode=")" horiz-adv-x="665" d="M49 -195q0 31 19.5 55.5t50.5 24.5h188q29 0 58.5 21.5t29.5 50.5v1094q0 72 -108 71q-20 0 -60.5 -2t-60.5 -2q-113 0 -113 76q0 29 21.5 50.5t50.5 21.5h379q41 0 72.5 -34t31.5 -75v-1317q0 -41 -35.5 -73.5t-76.5 -32.5h-379q-29 0 -48.5 21.5t-19.5 49.5z" />
<glyph unicode="*" horiz-adv-x="782" d="M35 1108q0 31 29.5 63.5t60.5 32.5q37 0 94 -33q45 -29 90 -55v227q0 70 88 70q84 0 84 -67v-218q41 23 84 48q53 25 90 24q31 0 60.5 -29.5t29.5 -60.5q0 -27 -102 -90q-90 -58 -135 -74q39 -61 76 -123q57 -98 57 -121q0 -35 -30.5 -61.5t-67.5 -26.5q-35 0 -60 31 l-114 160l-115 -158q-25 -33 -59 -33q-35 0 -68 28t-33 63q0 23 82 120q53 61 105 123q-78 39 -228 127q-18 14 -18 33z" />
<glyph unicode="+" horiz-adv-x="792" d="M43 471q0 90 70 90h206v189q0 70 91 69q82 0 82 -67v-191h202q72 0 72 -90q0 -82 -70 -82h-204v-223q0 -68 -82 -68q-90 0 -91 70v221h-208q-68 0 -68 82z" />
<glyph unicode="," horiz-adv-x="397" d="M43 109v47q0 111 182 110q104 0 105 -67v-297q0 -68 -94 -68q-61 0 -76 60q-2 14 -2 108q-41 0 -74 33t-41 74z" />
<glyph unicode="-" horiz-adv-x="851" d="M59 483q0 29 20.5 53.5t49.5 24.5h582q69 0 69 -100q0 -29 -19.5 -50.5t-47.5 -21.5h-586q-68 0 -68 94z" />
<glyph unicode="." horiz-adv-x="372" d="M53 156q0 109 154 108q100 0 100 -168q0 -109 -153 -108q-100 0 -101 168z" />
<glyph unicode="/" horiz-adv-x="704" d="M37 82q0 25 182 522q170 467 205 553q45 111 139 111q39 0 73 -23.5t34 -62.5q0 -12 -387 -1073q-39 -109 -152 -109q-37 0 -65.5 23.5t-28.5 58.5z" />
<glyph unicode="0" horiz-adv-x="839" d="M57 0l2 1157q0 41 32 75t73 34h616v-1157q0 -41 -29.5 -75t-70.5 -34h-623zM313 244q0 -37 41 -58q33 -16 74 -16q98 0 98 74v786q0 70 -112 70q-100 0 -101 -70v-786z" />
<glyph unicode="1" horiz-adv-x="358" d="M55 0v1159q0 109 170 109q12 0 37 -2h37v-1157q0 -111 -156 -111h-45q-29 2 -43 2z" />
<glyph unicode="2" horiz-adv-x="804" d="M47 0v657q0 29 20.5 53.5t49.5 24.5h311q29 0 58.5 21.5t29.5 50.5v213q0 29 -21.5 49.5t-48.5 20.5h-323q-72 0 -72 94q0 29 21.5 50t50.5 21h543q41 0 72.5 -33.5t31.5 -74.5v-529q0 -29 -20.5 -53t-49.5 -24h-311q-31 0 -59.5 -21.5t-28.5 -50.5v-233 q0 -29 20.5 -49.5t49.5 -20.5h323q72 0 72 -82q0 -84 -72 -84h-647z" />
<glyph unicode="3" horiz-adv-x="843" d="M51 645q0 94 72 94l317 2q29 0 58.5 21.5t29.5 50.5v217q0 29 -21.5 49.5t-47.5 20.5h-338q-68 0 -68 98q0 29 21.5 48.5t50.5 19.5h553q41 0 74.5 -32t33.5 -73v-1059q0 -41 -33.5 -71.5t-74.5 -30.5h-557q-29 0 -48.5 21.5t-19.5 50.5q0 98 66 98l321 2q29 0 58.5 21.5 t29.5 50.5v258q0 29 -21.5 49t-47.5 20l-338 2q-29 0 -49.5 21.5t-20.5 50.5z" />
<glyph unicode="4" horiz-adv-x="831" d="M47 530v639q0 41 29.5 75t70.5 34q158 0 156 -109l-2 -512q0 -70 102 -69q111 0 111 69v512q0 51 41 84q35 29 88 29t91 -30.5t38 -82.5v-1169h-141q-41 0 -71 35t-30 76v303h-383q-41 0 -70.5 36.5t-29.5 79.5z" />
<glyph unicode="5" horiz-adv-x="813" d="M45 608v658h647q72 0 72 -82q0 -84 -72 -84h-323q-29 0 -49.5 -20.5t-20.5 -49.5v-233q0 -29 28.5 -50.5t59.5 -21.5h311q29 0 49.5 -24.5t20.5 -53.5v-528q0 -41 -31.5 -75t-72.5 -34h-543q-29 0 -50.5 21.5t-21.5 50.5q0 94 72 94h323q27 0 48.5 20.5t21.5 49.5v213 q0 29 -29.5 50t-58.5 21h-311q-29 0 -49.5 25t-20.5 53z" />
<glyph unicode="6" horiz-adv-x="811" d="M45 1167q0 41 36 74t77 33h542q68 0 68 -94q0 -29 -20.5 -53.5t-49.5 -24.5h-311q-25 0 -62.5 -26.5t-37.5 -49.5v-166h383q41 0 70.5 -33.5t29.5 -74.5v-639q0 -41 -31.5 -75t-72.5 -34h-504q-41 0 -77 33t-36 74q0 176 -2 528t-2 528zM303 240q0 -70 111 -70 q102 0 102 70v376q0 74 -98 74q-41 0 -74 -16q-41 -20 -41 -58v-376z" />
<glyph unicode="7" horiz-adv-x="831" d="M49 1180q0 82 70 82h543q41 0 76.5 -33t35.5 -74v-1051q0 -51 -40 -81.5t-93 -30.5q-51 0 -87 27.5t-36 76.5l2 922q0 29 -29.5 50.5t-58.5 21.5h-311q-72 0 -72 90z" />
<glyph unicode="8" d="M55 109v442q0 29 41 60.5t72 31.5q-31 0 -72 35t-41 63v416q0 41 32 75t73 34h516q41 0 72.5 -34t31.5 -75v-416q0 -29 -41 -63.5t-71 -34.5q31 0 71.5 -31.5t40.5 -60.5v-442q0 -41 -29.5 -75t-70.5 -34h-524q-41 0 -71 34t-30 75zM313 264q0 -37 41 -57q33 -16 74 -17 q98 0 98 74v238q0 70 -110 69q-102 0 -103 -69v-238zM313 793q0 -37 41 -58q33 -16 74 -16q98 0 98 74v237q0 70 -110 70q-102 0 -103 -70v-237z" />
<glyph unicode="9" horiz-adv-x="839" d="M57 522v639q0 41 32 75t73 34h504q41 0 76.5 -33t35.5 -74q0 -176 2 -528.5t2 -528.5q0 -41 -35.5 -73.5t-76.5 -32.5h-543q-68 0 -68 94q0 29 20.5 53.5t49.5 24.5h311q25 0 63 26.5t38 49.5v166h-383q-41 0 -71 33.5t-30 74.5zM311 657q0 -74 99 -73q39 0 76.5 18 t37.5 55v377q0 70 -112 70q-100 0 -101 -70v-377z" />
<glyph unicode=":" horiz-adv-x="354" d="M51 156q0 109 154 108q100 0 100 -168q0 -109 -153 -108q-100 0 -101 168zM51 811q0 109 154 109q100 0 100 -168q0 -109 -153 -109q-100 0 -101 168z" />
<glyph unicode=";" horiz-adv-x="358" d="M31 109q8 -41 41.5 -74t72.5 -33q0 -94 2 -108q14 -59 76 -60q94 0 94 68v297q0 68 -104 67q-182 0 -182 -110v-47zM55 811q0 109 154 109q100 0 100 -168q0 -109 -153 -109q-100 0 -101 168z" />
<glyph unicode="&#x3c;" horiz-adv-x="643" d="M33 635q0 25 18 43l414 414q20 20 45 20q35 0 64.5 -31.5t29.5 -66.5q0 -27 -18 -45l-342 -342l346 -344q18 -20 18 -45q0 -35 -30.5 -65t-67.5 -30q-25 0 -43 19q-401 375 -426 438q-8 18 -8 35z" />
<glyph unicode="=" horiz-adv-x="774" d="M35 279q0 29 20.5 53t48.5 24h582q70 0 70 -100q0 -29 -19.5 -50.5t-48.5 -21.5h-586q-68 0 -67 95zM35 647q0 29 20.5 53.5t48.5 24.5h582q70 0 70 -100q0 -29 -19.5 -50.5t-48.5 -21.5h-586q-68 0 -67 94z" />
<glyph unicode="&#x3e;" horiz-adv-x="624" d="M27 238q0 25 18 45l346 344l-342 342q-18 18 -18 45q0 35 28.5 66.5t65.5 31.5q25 0 43 -20l416 -414q18 -18 18 -43q0 -16 -8 -35q-25 -63 -426 -438q-20 -19 -45 -19q-35 0 -65.5 30t-30.5 65z" />
<glyph unicode="?" horiz-adv-x="765" d="M23 1186q0 82 71 82l561 -2q41 0 73 -34t32 -75v-393q0 -41 -30 -75t-71 -34h-383q0 -12 3 -41v-41q0 -166 -103 -165q-141 0 -141 104v205q0 113 178 112q27 0 78 -3t78 -3q137 0 137 76v131q0 53 -62 68q-25 6 -106 6q-41 0 -122 -3t-122 -3q-33 0 -52 27.5t-19 60.5z M39 156q0 109 154 108q100 0 100 -168q0 -109 -154 -108q-100 0 -100 168z" />
<glyph unicode="@" horiz-adv-x="1124" d="M49 106v979q0 33 32 62t66 29h838q33 0 64.5 -29t31.5 -62v-788q0 -33 -29.5 -60.5t-62.5 -27.5h-676q-25 0 -44 19.5t-19 43.5v324q0 23 18.5 41t40.5 18q33 0 166 2h164q0 12 2 39t2 41q0 90 -78 90h-256q-59 0 -59 82q0 59 57 60h449q35 0 64.5 -28t29.5 -60v-537h98 v727h-772v-930l395 2q63 0 64 -67q0 -61 -62 -62l-421 4q-35 0 -69 28t-34 60zM397 428q0 -82 60 -84h129q53 0 53 86t-53 86h-129q-59 0 -60 -88z" />
<glyph unicode="A" horiz-adv-x="839" d="M53 70v1124q0 29 21.5 50.5t50.5 21.5h553q41 0 72.5 -34t31.5 -75v-1048q0 -51 -38.5 -81t-92.5 -30q-53 0 -92 29.5t-39 81.5v395q0 29 -21.5 49t-49.5 20h-160q-29 0 -50.5 -21.5t-21.5 -49.5v-432q0 -72 -82 -72t-82 72zM217 793q0 -29 21.5 -50.5t50.5 -21.5h168 q29 0 50 21.5t21 50.5v237q0 29 -20.5 49.5t-48.5 20.5l-170 2q-29 0 -50.5 -21.5t-21.5 -50.5v-237z" />
<glyph unicode="B" d="M57 0l2 1266h617q41 0 72.5 -34t31.5 -75v-416q0 -31 -41 -62.5t-71 -35.5q31 -4 71.5 -32.5t40.5 -59.5v-442q0 -41 -30.5 -75t-69.5 -34h-623zM313 264q0 -37 41 -57q33 -16 72 -17q100 0 100 74v238q0 69 -109 69h-3q-100 0 -101 -69v-238zM313 793q0 -37 41 -58 q33 -16 72 -16q100 0 100 74v237q0 70 -112 70q-100 0 -101 -70v-237z" />
<glyph unicode="C" horiz-adv-x="757" d="M25 106v1051q0 41 31.5 75t72.5 34h543q29 0 50 -21.5t21 -50.5q0 -94 -71 -94h-324q-29 0 -49 -20.5t-20 -49.5v-786q0 -29 28.5 -50.5t59.5 -21.5h311q70 0 70 -100q0 -29 -19.5 -50.5t-48.5 -21.5h-543q-41 0 -76.5 33t-35.5 73z" />
<glyph unicode="D" d="M57 0l2 1266h617q41 0 72.5 -34t31.5 -75v-1048q0 -41 -29.5 -75t-70.5 -34h-623zM313 244q0 -37 41 -58q33 -16 74 -16q98 0 98 74v786q0 70 -112 70q-100 0 -101 -70v-786z" />
<glyph unicode="E" horiz-adv-x="776" d="M31 0v1266h661q74 0 74 -82q0 -84 -70 -84h-338q-29 0 -49 -20.5t-20 -49.5v-217q0 -29 28.5 -50.5t59.5 -21.5l317 -2q72 0 72 -94q0 -29 -20.5 -50.5t-49.5 -21.5l-338 -2q-29 0 -49 -20.5t-20 -48.5v-258q0 -29 28.5 -50.5t59.5 -21.5l321 -2q68 0 68 -84 q0 -86 -70 -86h-665z" />
<glyph unicode="F" horiz-adv-x="753" d="M23 102v1164h661q74 0 74 -82q0 -84 -70 -84h-338q-29 0 -49 -20.5t-20 -49.5v-217q0 -29 28.5 -50.5t59.5 -21.5l319 2q70 0 70 -98q0 -29 -20.5 -50.5t-49.5 -21.5l-338 -2q-29 0 -49 -20.5t-20 -48.5v-400q0 -51 -39 -81.5t-92 -30.5t-90 30.5t-37 81.5z" />
<glyph unicode="G" horiz-adv-x="802" d="M41 106v1051q0 41 31.5 75t72.5 34h543q74 0 74 -82q0 -84 -74 -84h-323q-27 0 -48.5 -20.5t-21.5 -49.5v-786q0 -74 117 -74q115 0 114 74v395q0 49 35 79t86 30q49 0 84 -30t35 -79l2 -567q0 -29 -21.5 -50.5t-50.5 -21.5h-542q-41 0 -77 33t-36 73z" />
<glyph unicode="H" d="M57 1266h150q41 0 72.5 -34t31.5 -75v-364q0 -72 142 -72q29 0 51 21.5t20 50.5q-2 365 -2 364q0 111 168 111h45q29 -2 43 -2v-1266q-12 0 -41 -2h-43q-172 0 -172 98l2 406q2 69 -107 69h-3q-102 0 -103 -69v-393q0 -41 -29.5 -75t-70.5 -34h-152z" />
<glyph unicode="I" horiz-adv-x="356" d="M57 104l2 1053q0 49 34 79t85 30t86 -30t35 -79v-1048q0 -51 -34 -80t-85 -29q-49 0 -86 28.5t-37 75.5z" />
<glyph unicode="J" d="M57 104v199q2 133 2 199q0 49 35 78.5t84 29.5q51 0 86 -29.5t35 -78.5v-258q0 -74 113 -74q115 0 114 74l-2 921q0 100 152 101q41 0 72.5 -34t31.5 -75v-1051q0 -41 -35.5 -73.5t-76.5 -32.5h-502q-43 0 -76 31.5t-33 72.5z" />
<glyph unicode="K" horiz-adv-x="835" d="M55 1266q14 0 45 2h45q164 0 164 -111v-436q14 0 45 -2t45 -2q125 0 123 76l-2 364q0 109 152 109q41 0 72.5 -34t31.5 -75v-416q0 -29 -41 -62.5t-71 -35.5q31 -2 71.5 -32.5t40.5 -59.5v-442q0 -41 -29.5 -75t-70.5 -34q-156 0 -156 96l2 406q2 73 -118 73h-3 q-14 0 -44.5 -2t-47.5 -2v-462q0 -111 -157 -111h-48q-31 2 -47 2z" />
<glyph unicode="L" horiz-adv-x="751" d="M23 106v1051q0 41 31.5 75t72.5 34q152 0 152 -101l-3 -921q0 -29 29 -50.5t60 -21.5h311q69 0 69 -100q0 -29 -19 -50.5t-48 -21.5h-543q-41 0 -76.5 33t-35.5 73z" />
<glyph unicode="M" horiz-adv-x="1144" d="M57 1157q0 109 150 109q49 0 74 -35q6 -10 32 -76l254 -639l262 641q45 109 105 109q152 0 151 -109v-1048q0 -53 -35.5 -82t-88.5 -29q-49 0 -90.5 25.5t-41.5 72.5q0 86 2 273v270v59l-266 -624l-254 635v-600q0 -51 -36.5 -81t-90.5 -30q-47 0 -86 25.5t-39 72.5z" />
<glyph unicode="N" d="M57 1266q16 0 54 2h51q55 0 84 -29q23 -20 45 -82l254 -639l-2 639q0 49 33.5 79t85.5 30q49 0 82.5 -30t33.5 -79v-1157q-14 0 -47 -2h-47q-100 0 -141 98l-250 606l-2 -593q0 -49 -33 -79t-82 -30q-47 0 -82 25.5t-35 70.5z" />
<glyph unicode="O" d="M57 104l2 1053q0 41 32 75t73 34h512q41 0 72.5 -34t31.5 -75v-1048q0 -41 -29.5 -75t-70.5 -34h-514q-43 0 -76 31.5t-33 72.5zM313 244q0 -37 41 -58q33 -16 74 -16q98 0 98 74v786q0 70 -112 70q-100 0 -101 -70v-786z" />
<glyph unicode="P" horiz-adv-x="804" d="M29 0v1266h637q41 0 72.5 -34t31.5 -75l-2 -477q0 -41 -31.5 -74t-72.5 -33h-269q-104 0 -104 -69v-395q0 -41 -32 -75t-73 -34h-157zM283 793q0 -74 125 -74q108 0 108 74v237q0 49 -45 64q-23 8 -84 8q-104 0 -104 -72v-237z" />
<glyph unicode="Q" d="M55 104l2 1053q0 41 32 75t73 34h512q41 0 72.5 -34t31.5 -75v-1048q0 -41 -29.5 -75t-70.5 -34h-178q0 -14 2 -43v-43q0 -104 -94 -104q-74 0 -74 116v39q2 27 2 35q-16 0 -51 -2t-54 -2q-176 0 -176 108zM291 244q0 -41 45 -60v146q0 71 80 71h2q82 0 82 -71v-154 q45 13 45 68v786q0 51 -51 66q-25 6 -95 6q-109 0 -108 -72v-786z" />
<glyph unicode="R" horiz-adv-x="835" d="M55 0l2 1266h617q41 0 72.5 -34t31.5 -75v-416q0 -31 -41 -63.5t-71 -34.5q31 -2 71.5 -32.5t40.5 -59.5v-442q0 -109 -151 -109q-41 0 -73 34t-32 75l2 393q0 69 -99 69h-3q-111 0 -111 -69v-393q0 -111 -166 -111h-45q-31 2 -45 2zM311 793q0 -37 41 -58q33 -16 74 -16 q98 0 98 74v237q0 70 -112 70q-100 0 -101 -70v-237z" />
<glyph unicode="S" horiz-adv-x="813" d="M43 608v549q0 41 31.5 75t72.5 34h543q29 0 50.5 -21.5t21.5 -50.5q0 -94 -72 -94h-323q-27 0 -48.5 -20.5t-21.5 -49.5v-233q0 -29 29.5 -50.5t58.5 -21.5h311q31 0 50.5 -24.5t19.5 -53.5v-528q0 -41 -32 -75t-72 -34h-543q-27 0 -49.5 21.5t-22.5 50.5q0 94 72 94h323 q29 0 49.5 20.5t20.5 49.5v213q0 29 -28.5 50t-59.5 21h-311q-29 0 -49.5 25t-20.5 53z" />
<glyph unicode="T" horiz-adv-x="778" d="M37 1180q0 82 69 82h586q68 0 68 -82q0 -90 -70 -90h-168v-986q0 -49 -34.5 -78.5t-86.5 -29.5q-49 0 -83.5 29.5t-34.5 78.5l-2 986h-172q-72 0 -72 90z" />
<glyph unicode="U" horiz-adv-x="843" d="M55 80v1124q0 29 20.5 49.5t49.5 20.5q94 0 94 -70v-960q0 -29 21.5 -50.5t50.5 -21.5l170 2q29 0 49 20.5t20 49.5q0 68 5 184q4 131 4 184q1 52 1 121t-1 154q-2 211 -2 274q0 117 114 117q53 0 93 -30.5t40 -82.5v-1048q0 -41 -31.5 -75t-72.5 -34h-553 q-29 0 -50.5 21.5t-21.5 50.5z" />
<glyph unicode="V" horiz-adv-x="825" d="M49 408v796q0 72 82 72t82 -72v-755l135 -181l180 224l2 679q0 49 33 78t82 29q53 0 93 -30.5t40 -82.5v-721l-325 -378q-59 -70 -88 -70q-33 0 -82 74z" />
<glyph unicode="W" horiz-adv-x="1144" d="M57 109l2 1060q0 47 39 73t88 26q51 0 88 -30t37 -81v-600l254 635l266 -625v301q-2 213 -2 301q0 47 41 73t91 26q53 0 88.5 -29t35.5 -82v-1048q0 -109 -151 -109q-59 0 -105 109l-262 641l-254 -639q-27 -66 -32 -76q-25 -35 -74 -35q-150 0 -150 109z" />
<glyph unicode="X" horiz-adv-x="872" d="M18 76q0 25 127 256q78 135 156 272q-80 139 -158 279q-123 223 -123 260q0 49 40 84t90 35q63 0 92 -56l196 -354l213 383q18 35 58 35q35 0 63.5 -24.5t28.5 -57.5q0 -25 -121 -244q-74 -131 -148 -260l293 -530q15 -27 15 -54q0 -49 -42 -83.5t-91 -34.5q-59 0 -93 51 q-4 8 -221 401l-225 -405q-18 -35 -57 -35q-35 0 -64 24.5t-29 57.5z" />
<glyph unicode="Y" horiz-adv-x="815" d="M45 571v633q0 29 20.5 49.5t49.5 20.5q94 0 94 -70v-469q0 -29 21.5 -50t50.5 -21l161 2q78 0 78 69l6 436q0 66 43 89q29 14 101 14q41 0 72.5 -34t31.5 -75v-557q0 -110 -165 -110h-3h-49q-33 2 -43 2v-391q0 -51 -34 -80t-83 -29q-51 0 -88 28.5t-37 75.5v199 q2 143 2 197h-157q-29 0 -50.5 21.5t-21.5 49.5z" />
<glyph unicode="Z" horiz-adv-x="827" d="M27 102q0 47 18 74t37 53l448 797h-395q-51 0 -79.5 34t-28.5 85q0 49 28.5 86t75.5 37h281q186 -2 280 -2q47 0 78 -35t31 -82q0 -29 -16.5 -54.5t-32.5 -50.5l-455 -802h395q49 0 79 -35t30 -86q0 -49 -30 -84t-79 -35h-557q-41 0 -74.5 29.5t-33.5 70.5z" />
<glyph unicode="[" horiz-adv-x="589" d="M27 -266v1532h483q70 0 70 -72q0 -78 -109 -78q-20 0 -63 3t-62 3q-106 0 -106 -71v-1094q0 -29 28.5 -50.5t59.5 -21.5h188q70 0 70 -80q0 -71 -68 -71h-491z" />
<glyph unicode="\" horiz-adv-x="708" d="M31 1182q0 39 37 63q31 23 69 23q94 0 139 -111q35 -86 205 -553q183 -497 183 -522q0 -37 -33 -60.5t-74 -23.5q-98 0 -139 111q-387 1061 -387 1073z" />
<glyph unicode="]" horiz-adv-x="667" d="M49 -195q0 80 70 80h188q29 0 58.5 21.5t29.5 50.5v1094q0 72 -106 71q-20 0 -62.5 -3t-62.5 -3q-111 0 -111 78q0 72 72 72h483v-1532h-491q-68 0 -68 71z" />
<glyph unicode="^" d="M33 782q0 25 16 47l309 412q16 23 64 23q27 0 41 -21l311 -414q19 -22 19 -47q0 -35 -32 -63.5t-69 -28.5q-27 0 -41 19l-239 342l-242 -344q-16 -23 -41 -23q-37 0 -66.5 30.5t-29.5 67.5z" />
<glyph unicode="_" horiz-adv-x="876" d="M74 94q0 29 20.5 53.5t48.5 24.5h582q70 0 70 -100q0 -29 -20.5 -50.5t-47.5 -21.5h-586q-68 0 -67 94z" />
<glyph unicode="`" horiz-adv-x="366" d="M-121 1745q0 37 82 37q29 0 109 -68l303 -256q20 -19 20 -33q0 -35 -78 -34q-35 0 -116 69l-299 252q-20 18 -21 33z" />
<glyph unicode="a" horiz-adv-x="843" d="M53 76v368q0 94 72 95q37 0 199 2q60 1 110 1t88 -1q0 16 2 48t2 48q0 108 -90 108h-2h-311q-70 0 -70 101q0 29 19.5 50.5t48.5 21.5h543q39 0 75.5 -33t36.5 -74v-811h-647q-31 0 -53.5 23.5t-22.5 52.5zM229 264q0 -100 72 -100l158 -2q63 0 63 106q0 102 -63 103 h-158q-72 0 -72 -107z" />
<glyph unicode="b" horiz-adv-x="817" d="M47 1233q0 47 37 75.5t86 28.5q51 0 85 -28.5t34 -79.5v-303h383q41 0 70.5 -34t29.5 -75v-700q0 -41 -31.5 -75t-72.5 -34h-617zM305 244q0 -70 111 -70q102 0 102 70v438q0 74 -98 74q-41 0 -74 -17q-41 -20 -41 -57v-438z" />
<glyph unicode="c" horiz-adv-x="790" d="M41 106v703q0 41 31.5 75t72.5 34h543q29 0 50.5 -22t21.5 -50q0 -94 -72 -94h-323q-27 0 -48.5 -20.5t-21.5 -49.5v-438q0 -29 29.5 -50.5t58.5 -21.5h311q70 0 70 -100q0 -29 -19.5 -50.5t-48.5 -21.5h-542q-41 0 -77 33t-36 73z" />
<glyph unicode="d" horiz-adv-x="821" d="M49 104v701q0 41 30 74.5t71 33.5h382v304q0 51 34 79.5t83 28.5t87 -28.5t38 -75.5q0 -205 -2 -612.5t-2 -612.5h-616q-41 0 -73 33.5t-32 74.5zM303 231q0 -69 108 -69h3h3q99 0 99 69v439q0 37 -38 55t-77 18q-98 0 -98 -73v-439z" />
<glyph unicode="e" horiz-adv-x="823" d="M47 106v703q0 41 32 75t73 34h542q31 0 53.5 -24t22.5 -52v-369q0 -94 -72 -94q-37 0 -198 -2q-60 -1 -110 -1t-89 1v-133q0 -29 29.5 -50.5t58.5 -21.5h311q72 0 72 -90q0 -82 -70 -82h-542q-39 0 -76 33t-37 73zM301 543l289 2l2 139q0 29 -19.5 49.5t-47 20.5t-66.5 2 h-53q-59 0 -82 -25.5t-23 -116.5v-71z" />
<glyph unicode="f" horiz-adv-x="800" d="M23 821q0 92 110 92h43q29 -2 43 -2v314q0 39 43 72.5t84 33.5h379q27 0 47.5 -21t20.5 -50q0 -100 -86 -101q-10 0 -36 2t-40 2q-154 0 -156 -80v-57v-115h242q69 0 69 -87q0 -85 -67 -85h-244v-739h-256v739q-12 0 -43 -2t-47 -2q-106 0 -106 86z" />
<glyph unicode="g" horiz-adv-x="829" d="M49 109v700q0 41 32 75t73 34h616q0 -205 2 -612.5t2 -612.5q0 -41 -36 -74t-76 -33h-543q-29 0 -48.5 21.5t-19.5 50.5q0 100 70 100h311q25 0 62.5 27t37.5 49v166h-382q-41 0 -71 34t-30 75zM303 244q0 -74 98 -74q41 0 74 16q41 21 41 58v438q0 70 -102 70 q-111 0 -111 -70v-438z" />
<glyph unicode="h" horiz-adv-x="819" d="M47 0v1233q0 47 38 75.5t87 28.5q51 0 84 -28.5t33 -79.5v-303h383q43 0 71.5 -37t28.5 -80v-700q0 -111 -158 -111h-49q-33 2 -49 2l2 682q0 70 -110 70q-102 0 -103 -70v-682h-258z" />
<glyph unicode="i" horiz-adv-x="352" d="M53 0v813q0 51 38 82t89 31q53 0 90 -31t37 -82l2 -813h-256zM53 1221q0 108 151 108h3q100 0 100 -168q0 -108 -150 -108h-3q-100 0 -101 168z" />
<glyph unicode="j" horiz-adv-x="698" d="M-86 -342q0 100 70 100h311q25 0 62.5 27t37.5 49v979q0 51 37 82t90 31t90 -31t37 -82l2 -1120q0 -39 -43 -73t-84 -34h-542q-29 0 -48.5 21.5t-19.5 50.5zM395 1221q0 108 151 108h3q100 0 100 -168q0 -108 -150 -108h-3q-100 0 -101 168z" />
<glyph unicode="k" horiz-adv-x="806" d="M37 1266q14 0 45 2h45q164 0 164 -111v-579h141q78 0 78 127q0 16 -2 41.5t-2 33.5q0 41 30.5 79t69.5 38h47q41 0 73 -34t32 -75v-190q0 -29 -41 -62.5t-72 -35.5q33 -2 73 -33t40 -59v-299q0 -41 -30 -75t-71 -34q-150 0 -151 102l-2 256q0 74 -119 74q-16 0 -47 -2 t-47 -2v-319q0 -41 -30 -75t-71 -34h-151z" />
<glyph unicode="l" horiz-adv-x="344" d="M53 0v1233q0 47 38 75.5t87 28.5q51 0 84 -28.5t33 -79.5v-1229h-242z" />
<glyph unicode="m" horiz-adv-x="1312" d="M55 0v922h1084q43 0 73.5 -34t30.5 -75v-700q0 -113 -176 -113h-41h-39l2 686q0 70 -110 70q-102 0 -103 -70v-682q-41 0 -125 -2t-127 -2v4h-2v678q0 70 -100 70q-113 0 -113 -70v-682h-254z" />
<glyph unicode="n" horiz-adv-x="845" d="M55 0v918h617q43 0 73.5 -34t30.5 -75v-700q0 -111 -158 -111h-49q-33 2 -49 2l2 682q0 70 -110 70q-102 0 -103 -70v-682h-254z" />
<glyph unicode="o" horiz-adv-x="847" d="M55 104l2 705q0 41 32 75t73 34h512q41 0 72.5 -34t31.5 -75v-700q0 -41 -29.5 -75t-70.5 -34h-514q-41 0 -75 31.5t-34 72.5zM311 244q0 -37 41 -58q35 -16 74 -16q98 0 98 74v438q0 70 -110 70q-102 0 -103 -70v-438z" />
<glyph unicode="p" horiz-adv-x="825" d="M51 -307q0 205 2 613.5t2 611.5h617q41 0 72.5 -34t31.5 -75v-700q0 -41 -29.5 -75t-70.5 -34h-383v-303q0 -51 -33 -80t-84 -29q-49 0 -87 29t-38 76zM309 244q0 -37 41 -58q35 -16 74 -16q98 0 98 74v438q0 70 -110 70q-102 0 -103 -70v-438z" />
<glyph unicode="q" horiz-adv-x="829" d="M49 109v700q0 41 32 75t73 34h616q0 -205 2 -612.5t2 -612.5q0 -47 -37 -76t-88 -29q-49 0 -83 29t-34 80v303h-382q-41 0 -71 34t-30 75zM303 244q0 -74 98 -74q41 0 74 16q41 21 41 58v438q0 70 -110 70q-102 0 -103 -70v-438z" />
<glyph unicode="r" horiz-adv-x="722" d="M16 0l2 918h648q74 0 73 -82q0 -84 -73 -84h-324q-29 0 -49.5 -20.5t-20.5 -49.5v-682h-256z" />
<glyph unicode="s" horiz-adv-x="827" d="M51 444v365q0 41 32 75t73 34h542q29 0 50.5 -22t21.5 -50q0 -94 -72 -94h-323q-70 0 -70 -109q0 -35 26.5 -58.5t61.5 -23.5h312q31 0 50 -24.5t19 -53.5v-364q0 -41 -30.5 -75t-73.5 -34h-543q-27 0 -49.5 21.5t-22.5 50.5q0 94 72 94h324q69 0 69 106q0 38 -25.5 61.5 t-62.5 23.5h-311q-29 0 -49.5 24.5t-20.5 52.5z" />
<glyph unicode="t" horiz-adv-x="833" d="M139 924q16 0 47 -2t43 -2v206q23 0 72 2h70q72 0 94 -28.5t22 -85.5q0 -14 -2 -45v-49h244q68 0 68 -82q0 -90 -70 -90h-242l-2 -334q0 -152 6 -176q10 -51 62 -60q27 -6 182 -6q70 0 70 -100q0 -29 -20.5 -50.5t-47.5 -21.5h-379q-41 0 -84 34t-43 72v642q-14 0 -43 -3 h-43q-110 0 -110 91q0 88 106 88z" />
<glyph unicode="u" horiz-adv-x="847" d="M57 4v918q14 0 47 2h48q160 0 159 -111v-573q0 -70 103 -70q111 0 110 70l-2 682q14 0 49 2h47q160 0 160 -111v-700q0 -41 -31.5 -75t-72.5 -34h-617z" />
<glyph unicode="v" horiz-adv-x="827" d="M45 408v448q0 72 82 72t82 -72v-407l135 -181l180 224l2 331q2 106 117 107q51 0 91 -31t40 -82v-373l-325 -378q-59 -70 -89 -70q-31 0 -81 74z" />
<glyph unicode="w" horiz-adv-x="1312" d="M55 -4v922h254v-682q0 -70 113 -70q100 0 100 70v677h2v5h254l-2 -687q0 -69 110 -69h3q100 0 100 69l2 680q16 0 50 2t53 2q150 0 149 -110v-701q0 -41 -31.5 -74.5t-72.5 -33.5h-1084z" />
<glyph unicode="x" horiz-adv-x="856" d="M25 61q0 23 16 43l246 306l-215 305q-16 25 -17 53q0 51 48.5 93t101.5 42t84 -45l168 -240l202 254q20 25 56 25q33 0 61.5 -27.5t28.5 -58.5q0 -23 -17 -43l-233 -291l209 -297q20 -29 20 -61q0 -53 -46 -93t-99 -40q-55 0 -86 45l-168 237l-215 -268q-20 -27 -53 -27 t-62.5 27t-29.5 61z" />
<glyph unicode="y" horiz-adv-x="829" d="M51 -319q0 29 20.5 53t49.5 24h311q25 0 62.5 27t37.5 49v166l-374 4q-41 0 -73 34t-32 75v700q0 41 30 75t71 34q152 0 151 -109l2 -573q0 -70 111 -70q102 0 102 70v573q0 109 154 109q41 0 70.5 -34t29.5 -75v-1120q0 -41 -36 -74t-76 -33h-543q-68 0 -68 95z" />
<glyph unicode="z" horiz-adv-x="851" d="M31 797q0 49 28.5 86t77.5 37h281q186 -2 280 -2q47 0 78 -31t31 -78q0 -61 -49 -113l-434 -454h374q49 0 79 -35t30 -86q0 -49 -29.5 -84t-79.5 -35h-557q-108 0 -108 131q0 14 21.5 49t33.5 47l428 449h-375q-51 0 -80.5 33.5t-29.5 85.5z" />
<glyph unicode="{" horiz-adv-x="700" d="M20 530q31 0 75 39t44 70v627h484q29 0 50 -21.5t21 -50.5q0 -76 -114 -76q-18 0 -58.5 2t-60.5 2q-109 0 -109 -71l2 -412q0 -31 -44 -70t-74 -39q31 0 74.5 -37.5t43.5 -66.5l-2 -469q0 -29 29 -50.5t59 -21.5h189q29 0 49 -24.5t20 -55.5q0 -29 -19.5 -50t-47.5 -21 h-492v692q0 29 -44 66.5t-75 37.5z" />
<glyph unicode="|" horiz-adv-x="358" d="M57 -266l2 1532h240v-1532h-242z" />
<glyph unicode="}" horiz-adv-x="757" d="M35 -195q0 31 19.5 55.5t49.5 24.5h189q29 0 58.5 21.5t29.5 50.5l-2 469q0 29 44 66.5t75 37.5q-31 0 -75 39t-44 70l2 412q0 72 -111 71q-18 0 -58 -2t-60 -2q-113 0 -113 76q0 29 21.5 50.5t50.5 21.5h483v-627q0 -31 44 -70t75 -39q-31 0 -75 -37.5t-44 -66.5v-692 h-492q-29 0 -48 21.5t-19 49.5z" />
<glyph unicode="~" horiz-adv-x="1026" d="M43 440v113q0 41 33 77t74 36h356q39 0 62.5 -34t23.5 -77q23 -53 86 -51h47q49 2 59.5 41t18.5 76q18 41 86 41q27 0 49.5 -22t22.5 -50v-113q0 -41 -34 -72.5t-75 -31.5h-334q-106 0 -106 135q-23 29 -78 29q-8 0 -23 -2h-24q-43 0 -57.5 -40t-26.5 -81 q-23 -41 -88 -41q-29 0 -50.5 19.5t-21.5 47.5z" />
<glyph unicode="&#xa1;" horiz-adv-x="370" d="M53 -246v752q0 51 38 81.5t89 30.5q53 0 90 -30.5t37 -81.5l2 -752h-256zM53 913q0 109 154 109q100 0 100 -168q0 -109 -153 -109q-100 0 -101 168z" />
<glyph unicode="&#xa2;" horiz-adv-x="784" d="M35 311v703q0 41 31.5 74.5t72.5 33.5h213q0 94 4 111q14 51 84 51q68 0 80 -53q4 -10 4 -109h158q72 0 72 -82q0 -84 -72 -84h-158v-579h164q70 0 70 -90q0 -82 -68 -82h-166v-37q2 -25 2 -37q0 -100 -86 -100q-72 0 -86 55q-2 12 -2 119h-205q-41 0 -76.5 32.5 t-35.5 73.5zM289 449q0 -48 63 -68v575q-63 -6 -63 -69v-438z" />
<glyph unicode="&#xa3;" horiz-adv-x="802" d="M4 674q0 70 53 86q14 4 111 4l57 393q6 41 43 75t78 34h297q57 0 57 -68q0 -74 -57 -92q-55 -6 -111 -12q-61 -12 -71 -72l-37 -258h233q70 0 70 -90q0 -82 -68 -82h-262q-51 -350 -51 -356q0 -27 25.5 -45.5t52.5 -18.5h311q57 0 58 -72q0 -100 -80 -100h-543 q-39 0 -70.5 29.5t-27.5 66.5v10l71 486q-78 0 -96 6q-43 14 -43 76z" />
<glyph unicode="&#xa5;" horiz-adv-x="823" d="M45 571v633q0 29 21.5 49.5t48.5 20.5q94 0 94 -70v-469q0 -29 21.5 -50t50.5 -21l161 2q78 0 78 69l6 436q2 66 45 89q29 14 99 14q41 0 72.5 -34t31.5 -75v-557q0 -111 -166 -110h-49q-33 2 -45 2v-123h188q72 0 72 -90q0 -82 -69 -82h-191q0 -111 -8 -139 q-23 -66 -109 -66q-90 0 -112 63q-12 31 -13 142h-153q-68 0 -68 82q0 90 70 90h153v123h-157q-29 0 -50.5 21.5t-21.5 49.5z" />
<glyph unicode="&#xa6;" horiz-adv-x="348" d="M55 598v668h240v-668h-240zM57 -266v674h238v-674h-238z" />
<glyph unicode="&#xa7;" horiz-adv-x="817" d="M49 496v661q0 41 32 75t73 34h542q72 0 72 -95q0 -78 -131 -77q-33 0 -102.5 6t-102.5 6q-129 0 -129 -76v-143h356q41 0 77 -33t36 -74v-661q0 -41 -31.5 -75t-72.5 -34h-543q-72 0 -72 94q0 78 131 78q33 0 102.5 -6t102.5 -6q129 0 129 76v143h-356q-41 0 -77 33 t-36 74zM303 633q0 -74 143 -74h37q23 2 35 2v82q0 74 -143 74h-35q-25 -2 -37 -2v-82z" />
<glyph unicode="&#xa8;" horiz-adv-x="638" d="M-82 1473v53q0 51 45 80q39 25 92 24q53 0 92 -24q47 -29 48 -80v-53q0 -51 -48 -80q-39 -25 -92 -25t-92 25q-45 29 -45 80zM410 1473v53q0 51 45 80q39 25 92 24q53 0 92 -24q47 -29 47 -80v-53q0 -51 -47 -80q-39 -25 -92 -25t-92 25q-45 29 -45 80z" />
<glyph unicode="&#xa9;" horiz-adv-x="1165" d="M57 104l2 1053q0 41 32 75t73 34h840q41 0 72.5 -34t31.5 -75v-1048q0 -41 -29.5 -75t-70.5 -34h-842q-43 0 -76 31.5t-33 72.5zM150 162q0 -29 28.5 -50.5t59.5 -21.5h708q29 0 50.5 21.5t21.5 50.5v950q0 29 -21.5 49.5t-48.5 20.5h-729q-29 0 -49 -20.5t-20 -49.5 v-950zM354 307v680q0 27 20.5 48.5t47.5 21.5h350q47 0 47 -47q0 -59 -47 -60h-209q-45 0 -45 -45v-508q0 -20 18.5 -33.5t38.5 -13.5h201q45 1 45 -65q0 -45 -43 -45h-352q-27 0 -49.5 20.5t-22.5 46.5z" />
<glyph unicode="&#xaa;" horiz-adv-x="587" d="M43 713v248q0 61 49 61q25 0 133 2q80 2 131 0q0 10 2 31.5t2 34.5q0 72 -61 71h-209q-47 0 -47 68q0 47 45 47h365q27 0 50 -22.5t23 -49.5v-540h-432q-51 0 -51 49zM162 840q0 -53 37 -66q16 -6 86 -6q71 0 71 51l2 23l-2 10q0 47 -34 57q-14 4 -76 4q-47 0 -65.5 -13 t-18.5 -60z" />
<glyph unicode="&#xab;" horiz-adv-x="931" d="M37 606q0 16 20 37q31 29 31 31l313 434q10 4 21 4q18 0 49 -21.5t31 -39.5q0 -16 -21 -45q-29 -41 -30 -43l-183 -359l183 -358q2 -2 30 -43q21 -29 21 -45q0 -18 -31 -40t-49 -22q-10 0 -21 4l-313 435q-6 2 -28.5 32.5t-22.5 38.5zM426 606q0 16 20 37q31 29 31 31 l314 434q10 4 20 4q18 0 49 -21.5t31 -39.5q0 -16 -21 -45q-29 -41 -30 -43l-183 -359l183 -358q2 -2 30 -43q21 -29 21 -45q0 -18 -31 -40t-49 -22q-10 0 -20 4l-314 435q-6 2 -28.5 32.5t-22.5 38.5z" />
<glyph unicode="&#xac;" horiz-adv-x="1005" d="M106 119v90h838v-402h-100v312h-738z" />
<glyph unicode="&#xad;" horiz-adv-x="851" d="M59 483q0 29 20.5 53.5t49.5 24.5h582q69 0 69 -100q0 -29 -19.5 -50.5t-47.5 -21.5h-586q-68 0 -68 94z" />
<glyph unicode="&#xae;" horiz-adv-x="1165" d="M57 104l2 1053q0 41 32 75t73 34h840q41 0 72.5 -34t31.5 -75v-1048q0 -41 -29.5 -75t-70.5 -34h-842q-43 0 -76 31.5t-33 72.5zM150 162q0 -29 28.5 -50.5t59.5 -21.5h708q29 0 50.5 21.5t21.5 50.5v950q0 29 -21.5 49.5t-48.5 20.5h-729q-29 0 -49 -20.5t-20 -49.5 v-950zM334 217l2 852h424q29 0 50 -23.5t21 -52.5v-286q0 -20 -27.5 -43t-49.5 -25q23 0 50 -21.5t27 -42.5v-282q0 -29 -20 -52.5t-49 -23.5q-106 0 -107 76l2 250q0 49 -71 49q-76 0 -76 -49v-250q0 -76 -115 -76h-30.5h-30.5zM510 743q0 -51 80 -51q67 0 67 51v162 q0 53 -73 53q-74 0 -74 -53v-162z" />
<glyph unicode="&#xaf;" horiz-adv-x="546" d="M8 1692v18v-10q8 70 70 69h438q59 0 68 -69l2 10v-18l-2 8q-6 -61 -66 -62h-442q-59 0 -68 62v-8z" />
<glyph unicode="&#xb0;" horiz-adv-x="546" d="M49 780l2 422q0 25 18.5 45.5t43.5 20.5h307q27 0 45 -20.5t18 -45.5v-420q0 -25 -17 -45t-42 -20h-309q-25 0 -45.5 19.5t-20.5 43.5zM203 862q0 -43 69 -43q60 0 60 43v264q0 45 -66 45q-63 0 -63 -45v-264z" />
<glyph unicode="&#xb1;" horiz-adv-x="786" d="M39 94q0 29 20.5 53.5t49.5 24.5h581q70 0 70 -100q0 -29 -19.5 -50.5t-48.5 -21.5h-586q-68 0 -67 94zM39 655q0 90 70 90h206v189q0 70 91 70q82 0 81 -68v-191h203q72 0 72 -90q0 -82 -70 -82h-205v-223q0 -68 -81 -67q-90 0 -91 69v221h-209q-68 0 -67 82z" />
<glyph unicode="&#xb2;" horiz-adv-x="407" d="M35 707v290q0 39 74 39q16 0 42.5 -2t32.5 -2q47 0 58 25q6 12 6 69q0 63 -35 64h-143q-33 0 -33 41q0 33 33 33h239q47 0 47 -50v-233q0 -39 -73 -39q-16 0 -43 2t-33 2q-49 0 -57 -24q-2 -4 -3 -68q0 -47 5 -57q10 -20 49 -21q20 0 61 2t62 2q31 0 30 -37 q0 -37 -30 -36h-289z" />
<glyph unicode="&#xb3;" horiz-adv-x="434" d="M43 991q0 43 33 43l143 2q43 0 43 94q0 68 -35 68h-151q-31 0 -31 43q0 31 33 31h248q49 0 49 -47v-477q0 -47 -49 -48h-250q-31 0 -31 33q0 45 29 45h145q39 0 39 33v117q0 35 -59 35q-14 0 -46 -3.5t-49 -3.5q-61 0 -61 35z" />
<glyph unicode="&#xb4;" horiz-adv-x="358" d="M-131 1425q0 14 20 33l299 252q82 70 117 70q80 0 80 -35q0 -14 -23 -33l-303 -256q-79 -67 -108 -67q-82 0 -82 36z" />
<glyph unicode="&#xb6;" horiz-adv-x="888" d="M47 1157q0 41 32 75t73 34h677v-1266q-84 0 -118 14q-61 23 -62 95v991h-108l2 -1100q-84 0 -119 14q-61 23 -62 95v395q0 74 -118 74q-18 0 -49 -2.5t-41 -2.5q-41 0 -72 33t-33 74z" />
<glyph unicode="&#xb7;" horiz-adv-x="374" d="M53 811q0 109 154 109q100 0 100 -168q0 -109 -153 -109q-100 0 -101 168z" />
<glyph unicode="&#xb8;" horiz-adv-x="290" d="M12 -317q39 -12 76 -13q37 0 70 15q41 18 41 51q0 72 -170 69v195h98v-113q63 -8 119 -45q65 -45 65 -100q0 -80 -92 -123q-72 -31 -164 -31q-23 0 -43 2v93z" />
<glyph unicode="&#xb9;" horiz-adv-x="221" d="M45 705v524q0 51 82 49l35 -2v-522q0 -53 -76 -49h-41z" />
<glyph unicode="&#xba;" horiz-adv-x="600" d="M43 735l2 486q0 29 21.5 51t50.5 22h352q29 0 50.5 -22.5t21.5 -50.5v-482q0 -29 -20.5 -52t-49.5 -23h-352q-29 0 -52.5 22.5t-23.5 48.5zM219 831q0 -51 80 -51q68 0 68 51v302q0 53 -74 53t-74 -53v-302z" />
<glyph unicode="&#xbb;" horiz-adv-x="931" d="M35 158q0 16 20 45q29 41 31 43l182 358l-182 359q-2 2 -31 43q-20 29 -20 45q0 18 30.5 39.5t49.5 21.5q10 0 20 -4l314 -434q0 -2 30 -31q21 -21 21 -37l-365 -506q-10 -4 -20 -4q-18 0 -49 21.5t-31 40.5zM424 158q0 16 20 45q29 41 31 43l182 358l-182 359 q-2 2 -31 43q-20 29 -20 45q0 18 30.5 39.5t49.5 21.5q10 0 20 -4l314 -434q0 -2 30 -31q21 -21 21 -37l-365 -506q-10 -4 -20 -4q-18 0 -49 21.5t-31 40.5z" />
<glyph unicode="&#xbc;" horiz-adv-x="997" d="M12 80q0 27 299 559l344 610q18 33 60 33q37 0 69.5 -24.5t32.5 -59.5q0 -27 -301 -561q-174 -307 -348 -612q-18 -33 -53 -33q-37 0 -70 25.5t-33 62.5zM53 705v524q0 51 82 49l37 -2v-522q0 -53 -76 -49h-43zM637 246v291q0 49 47 49q72 0 72 -49l-2 -234q0 -33 47 -33 q51 0 51 33v234q0 51 57 51q59 0 60 -51v-535h-64q-47 0 -47 51v137h-174q-47 0 -47 56z" />
<glyph unicode="&#xbd;" horiz-adv-x="983" d="M8 80q0 27 299 559q172 305 346 610q18 33 60 33q35 0 67.5 -24.5t32.5 -59.5q0 -27 -301 -561q-174 -307 -348 -612q-18 -33 -53 -33q-37 0 -70 25.5t-33 62.5zM49 705v524q0 51 82 49l37 -2v-522q0 -53 -76 -49h-43zM623 10v291q0 39 73 39q16 0 43 -2t33 -2 q47 0 57 24q6 12 7 70q0 63 -35 64h-144q-33 0 -32 41q0 33 32 32h240q47 0 47 -49v-233q0 -39 -74 -39q-16 0 -42.5 2t-32.5 2q-49 0 -58 -25q-2 -4 -2 -67q0 -47 6 -58q8 -20 47 -20q20 0 61.5 2t61.5 2q31 0 31 -37t-31 -37h-288z" />
<glyph unicode="&#xbe;" horiz-adv-x="987" d="M27 733q0 45 30 45h146q39 0 39 33v117q0 35 -60 35q-16 0 -47 -3.5t-47 -3.5q-61 0 -61 35q0 43 32 43l144 2q43 0 43 94q0 68 -35 68h-154q-31 0 -30 43q0 31 32 31h250q49 0 49 -47v-477q0 -47 -49 -48h-252q-31 0 -30 33zM74 80q0 27 301 559l344 610q18 33 59 33 q37 0 69 -24.5t32 -59.5q0 -27 -299 -561q-174 -307 -349 -612q-18 -33 -53 -33q-39 0 -71.5 25.5t-32.5 62.5zM618 246v291q0 49 48 49q70 0 69 -49v-234q0 -33 47 -33q49 0 49 33v234q0 51 60 51q59 0 59 -51v-535h-65q-45 0 -45 51v137h-174q-47 0 -48 56z" />
<glyph unicode="&#xbf;" horiz-adv-x="788" d="M31 -137v393q0 41 29.5 75t70.5 34h383q0 12 -2 41v40q0 166 102 166q141 0 142 -104v-205q0 -113 -178 -113q-27 0 -78 3.5t-78 3.5q-137 0 -137 -76v-131q0 -53 61 -68q25 -6 107 -6q41 0 121.5 3t121.5 3q33 0 52.5 -27.5t19.5 -60.5q0 -82 -72 -82l-561 2 q-41 0 -72.5 34t-31.5 75zM498 924q0 109 153 108q101 0 101 -168q0 -109 -154 -108q-100 0 -100 168z" />
<glyph unicode="&#xc0;" horiz-adv-x="847" d="M61 70v1124q0 29 21.5 50.5t50.5 21.5h553q41 0 72.5 -34t31.5 -75v-1048q0 -51 -38.5 -81t-92.5 -30q-53 0 -92 29.5t-39 81.5v395q0 29 -21.5 49t-49.5 20h-160q-29 0 -50.5 -21.5t-21.5 -49.5v-432q0 -72 -82 -72t-82 72zM196 1745q0 37 82 37q29 0 109 -68l303 -256 q20 -19 20 -33q0 -35 -78 -34q-35 0 -116 69l-299 252q-20 18 -21 33zM225 793q0 -29 21.5 -50.5t50.5 -21.5h168q29 0 50 21.5t21 50.5v237q0 29 -20.5 49.5t-48.5 20.5l-170 2q-29 0 -50.5 -21.5t-21.5 -50.5v-237z" />
<glyph unicode="&#xc1;" horiz-adv-x="847" d="M61 70v1124q0 29 21.5 50.5t50.5 21.5h553q41 0 72.5 -34t31.5 -75v-1048q0 -51 -38.5 -81t-92.5 -30q-53 0 -92 29.5t-39 81.5v395q0 29 -21.5 49t-49.5 20h-160q-29 0 -50.5 -21.5t-21.5 -49.5v-432q0 -72 -82 -72t-82 72zM225 793q0 -29 21.5 -50.5t50.5 -21.5h168 q29 0 50 21.5t21 50.5v237q0 29 -20.5 49.5t-48.5 20.5l-170 2q-29 0 -50.5 -21.5t-21.5 -50.5v-237zM326 1425q0 14 20 33l299 252q82 70 117 70q80 0 80 -35q0 -14 -23 -33l-303 -256q-79 -67 -108 -67q-82 0 -82 36z" />
<glyph unicode="&#xc2;" horiz-adv-x="847" d="M61 70v1124q0 29 21.5 50.5t50.5 21.5h553q41 0 72.5 -34t31.5 -75v-1048q0 -51 -38.5 -81t-92.5 -30q-53 0 -92 29.5t-39 81.5v395q0 29 -21.5 49t-49.5 20h-160q-29 0 -50.5 -21.5t-21.5 -49.5v-432q0 -72 -82 -72t-82 72zM160 1479q0 18 12 34l230 308q14 18 49 18 q18 0 30 -14l234 -309q12 -19 12 -37q0 -27 -23.5 -48.5t-49.5 -21.5q-20 0 -31 16l-180 254l-181 -258q-12 -14 -30 -14q-27 0 -49.5 22.5t-22.5 49.5zM225 793q0 -29 21.5 -50.5t50.5 -21.5h168q29 0 50 21.5t21 50.5v237q0 29 -20.5 49.5t-48.5 20.5l-170 2 q-29 0 -50.5 -21.5t-21.5 -50.5v-237z" />
<glyph unicode="&#xc3;" horiz-adv-x="847" d="M61 70v1124q0 29 21.5 50.5t50.5 21.5h553q41 0 72.5 -34t31.5 -75v-1048q0 -51 -38.5 -81t-92.5 -30q-53 0 -92 29.5t-39 81.5v395q0 29 -21.5 49t-49.5 20h-160q-29 0 -50.5 -21.5t-21.5 -49.5v-432q0 -72 -82 -72t-82 72zM88 1481v88q0 33 25.5 61.5t58.5 28.5h283 q68 0 67 -88q18 -43 70 -41h37q43 2 54 63.5t75 61.5q23 0 40 -16.5t17 -39.5v-90q0 -33 -26.5 -57.5t-59.5 -24.5h-264q-86 0 -86 107q-18 23 -59 22l-39 -2q-37 0 -54.5 -63.5t-80.5 -63.5q-57 0 -58 54zM225 793q0 -29 21.5 -50.5t50.5 -21.5h168q29 0 50 21.5t21 50.5 v237q0 29 -20.5 49.5t-48.5 20.5l-170 2q-29 0 -50.5 -21.5t-21.5 -50.5v-237z" />
<glyph unicode="&#xc4;" horiz-adv-x="831" d="M43 70v1124q0 29 21.5 50.5t50.5 21.5h553q41 0 72.5 -34t31.5 -75v-1048q0 -51 -38.5 -81t-92.5 -30q-53 0 -92 29.5t-39 81.5v395q0 29 -21.5 49t-49.5 20h-160q-29 0 -50.5 -21.5t-21.5 -49.5v-432q0 -72 -82 -72t-82 72zM76 1473v53q0 51 45 80q39 25 92 24 q53 0 92 -24q47 -29 48 -80v-53q0 -51 -48 -80q-39 -25 -92 -25t-92 25q-45 29 -45 80zM207 793q0 -29 21.5 -50.5t50.5 -21.5h168q29 0 50 21.5t21 50.5v237q0 29 -20.5 49.5t-48.5 20.5l-170 2q-29 0 -50.5 -21.5t-21.5 -50.5v-237zM568 1473v53q0 51 45 80q39 25 92 24 q53 0 92 -24q47 -29 47 -80v-53q0 -51 -47 -80q-39 -25 -92 -25t-92 25q-45 29 -45 80z" />
<glyph unicode="&#xc5;" horiz-adv-x="849" d="M61 70v1124q0 29 21.5 50.5t50.5 21.5h553q41 0 72.5 -34t31.5 -75v-1048q0 -51 -38.5 -81t-92.5 -30q-53 0 -92 29.5t-39 81.5v395q0 29 -21.5 49t-49.5 20h-160q-29 0 -50.5 -21.5t-21.5 -49.5v-432q0 -72 -82 -72t-82 72zM225 793q0 -29 21.5 -50.5t50.5 -21.5h168 q29 0 50 21.5t21 50.5v237q0 29 -20.5 49.5t-48.5 20.5l-170 2q-29 0 -50.5 -21.5t-21.5 -50.5v-237zM355 1456v324q0 51 49 51h235q47 0 48 -51v-322q0 -51 -46 -51h-237q-49 0 -49 49zM471 1520q0 -35 54 -35q45 0 45 35v202q0 35 -49 35t-50 -35v-202z" />
<glyph unicode="&#xc6;" horiz-adv-x="1245" d="M27 70v1124q0 29 21.5 50.5t49.5 21.5h1063q29 0 50.5 -19.5t21.5 -48.5q0 -98 -68 -98h-338q-29 0 -49 -20.5t-20 -49.5v-217q0 -29 28.5 -50.5t59.5 -21.5l317 -2q29 0 50.5 -19t21.5 -48q0 -98 -70 -99l-338 -2q-29 0 -49 -20.5t-20 -48.5v-258q0 -29 28.5 -50.5 t59.5 -21.5l321 -2q68 0 68 -84q0 -86 -70 -86h-665v76q0 6 -3 16t-3 17v395q0 29 -21.5 49t-50.5 20h-160q-29 0 -50.5 -21.5t-21.5 -49.5v-432q0 -72 -81 -72q-82 0 -82 72zM190 793q0 -29 21.5 -50.5t50.5 -21.5h168q20 0 45 17.5t25 37.5v271q0 20 -23.5 36.5 t-44.5 16.5l-170 2q-29 0 -50.5 -21.5t-21.5 -50.5v-237z" />
<glyph unicode="&#xc7;" horiz-adv-x="741" d="M25 106v1051q0 41 31.5 75t72.5 34h543q74 0 73 -82q0 -84 -73 -84h-324q-29 0 -49 -20.5t-20 -49.5v-786q0 -29 29.5 -50.5t58.5 -21.5h311q72 0 72 -90q0 -82 -70 -82h-281v-113q61 -8 119 -45q66 -45 66 -100q0 -80 -92 -123q-72 -31 -164 -31q-23 0 -43 2v93 q39 -12 75 -13q37 0 70 15q41 18 41 51q0 72 -170 69v195q-14 0 -47 -2h-47q-182 0 -182 108z" />
<glyph unicode="&#xc8;" horiz-adv-x="749" d="M2 0v1266h661q74 0 74 -82q0 -84 -70 -84h-338q-29 0 -49 -20.5t-20 -49.5v-217q0 -29 28.5 -50.5t59.5 -21.5l317 -2q72 0 72 -94q0 -29 -20.5 -50.5t-49.5 -21.5l-338 -2q-29 0 -49 -20.5t-20 -48.5v-258q0 -29 28.5 -50.5t59.5 -21.5l321 -2q68 0 68 -84 q0 -86 -70 -86h-665zM164 1745q0 37 82 37q29 0 109 -68l303 -256q20 -19 20 -33q0 -35 -78 -34q-35 0 -116 69l-299 252q-20 18 -21 33z" />
<glyph unicode="&#xc9;" horiz-adv-x="751" d="M0 0v1266h661q74 0 74 -82q0 -84 -70 -84h-338q-29 0 -49 -20.5t-20 -49.5v-217q0 -29 28.5 -50.5t59.5 -21.5l317 -2q72 0 72 -94q0 -29 -20.5 -50.5t-49.5 -21.5l-338 -2q-29 0 -49 -20.5t-20 -48.5v-258q0 -29 28.5 -50.5t59.5 -21.5l321 -2q68 0 68 -84 q0 -86 -70 -86h-665zM291 1425q0 14 20 33l299 252q82 70 117 70q80 0 80 -35q0 -14 -23 -33l-303 -256q-79 -67 -108 -67q-82 0 -82 36z" />
<glyph unicode="&#xca;" horiz-adv-x="751" d="M4 0v1266h661q74 0 74 -82q0 -84 -70 -84h-338q-29 0 -49 -20.5t-20 -49.5v-217q0 -29 28.5 -50.5t59.5 -21.5l317 -2q72 0 72 -94q0 -29 -20.5 -50.5t-49.5 -21.5l-338 -2q-29 0 -49 -20.5t-20 -48.5v-258q0 -29 28.5 -50.5t59.5 -21.5l321 -2q68 0 68 -84 q0 -86 -70 -86h-665zM129 1479q0 18 12 34l230 308q14 18 49 18q18 0 30 -14l234 -309q12 -19 12 -37q0 -27 -23.5 -48.5t-49.5 -21.5q-20 0 -31 16l-180 254l-181 -258q-12 -14 -30 -14q-27 0 -49.5 22.5t-22.5 49.5z" />
<glyph unicode="&#xcb;" horiz-adv-x="757" d="M-14 0v1266h661q74 0 74 -82q0 -84 -70 -84h-338q-29 0 -49 -20.5t-20 -49.5v-217q0 -29 28.5 -50.5t59.5 -21.5l317 -2q72 0 72 -94q0 -29 -20.5 -50.5t-49.5 -21.5l-338 -2q-29 0 -49 -20.5t-20 -48.5v-258q0 -29 28.5 -50.5t59.5 -21.5l321 -2q68 0 68 -84 q0 -86 -70 -86h-665zM45 1473v53q0 51 45 80q39 25 92 24q53 0 92 -24q47 -29 48 -80v-53q0 -51 -48 -80q-39 -25 -92 -25t-92 25q-45 29 -45 80zM537 1473v53q0 51 45 80q39 25 92 24q53 0 92 -24q47 -29 47 -80v-53q0 -51 -47 -80q-39 -25 -92 -25t-92 25q-45 29 -45 80z " />
<glyph unicode="&#xcc;" horiz-adv-x="497" d="M18 1745q0 37 82 37q29 0 109 -68l303 -256q20 -19 20 -33q0 -35 -78 -34q-35 0 -116 69l-299 252q-20 18 -21 33zM84 104l2 1053q0 49 34 79t85 30t86 -30t35 -79v-1048q0 -51 -34 -80t-85 -29q-49 0 -86 28.5t-37 75.5z" />
<glyph unicode="&#xcd;" horiz-adv-x="569" d="M30 104l2 1053q0 49 34 79t85 30t86 -30t35 -79v-1048q0 -51 -34 -80t-85 -29q-49 0 -86 28.5t-37 75.5zM94 1425q0 14 20 33l299 252q82 70 117 70q80 0 80 -35q0 -14 -23 -33l-303 -256q-79 -67 -108 -67q-82 0 -82 36z" />
<glyph unicode="&#xce;" horiz-adv-x="466" d="M-68 1479q0 18 12 34l230 308q14 18 49 18q18 0 30 -14l234 -309q12 -19 12 -37q0 -27 -23.5 -48.5t-49.5 -21.5q-20 0 -31 16l-180 254l-181 -258q-12 -14 -30 -14q-27 0 -49.5 22.5t-22.5 49.5zM96 104l2 1053q0 49 34 79t85 30t86 -30t35 -79v-1048q0 -51 -34 -80 t-85 -29q-49 0 -86 28.5t-37 75.5z" />
<glyph unicode="&#xcf;" horiz-adv-x="628" d="M-92 1473v53q0 51 45 80q39 25 92 24q53 0 92 -24q47 -29 48 -80v-53q0 -51 -48 -80q-39 -25 -92 -25t-92 25q-45 29 -45 80zM137 104l2 1053q0 49 34 79t85 30t86 -30t35 -79v-1048q0 -51 -34 -80t-85 -29q-49 0 -86 28.5t-37 75.5zM400 1473v53q0 51 45 80q39 25 92 24 q53 0 92 -24q47 -29 47 -80v-53q0 -51 -47 -80q-39 -25 -92 -25t-92 25q-45 29 -45 80z" />
<glyph unicode="&#xd0;" horiz-adv-x="1032" d="M47 662q0 82 121 81q16 0 45 -2t39 -2v527h616q41 0 73 -34t32 -75v-1048q0 -41 -30 -75t-71 -34h-618v285q-2 141 -2 282h-137q-68 0 -68 95zM506 244q0 -37 41 -58q35 -16 74 -16q98 0 98 74v786q0 70 -111 70q-102 0 -102 -70v-291q78 0 98 -8q43 -16 43 -82 q0 -61 -45 -76q-16 -6 -96 -6v-323z" />
<glyph unicode="&#xd1;" horiz-adv-x="835" d="M55 1266q16 0 54 2h51q55 0 84 -29q23 -20 45 -82l254 -639l-2 639q0 49 33.5 79t85.5 30q49 0 82.5 -30t33.5 -79v-1157q-14 0 -47 -2h-47q-100 0 -141 98l-250 606l-2 -593q0 -49 -33 -79t-82 -30q-47 0 -82 25.5t-35 70.5zM76 1481v88q0 33 25.5 61.5t58.5 28.5h283 q68 0 67 -88q18 -43 70 -41h37q43 2 54 63.5t75 61.5q23 0 40 -16.5t17 -39.5v-90q0 -33 -26.5 -57.5t-59.5 -24.5h-264q-86 0 -86 107q-18 23 -59 22l-39 -2q-37 0 -54.5 -63.5t-80.5 -63.5q-57 0 -58 54z" />
<glyph unicode="&#xd2;" horiz-adv-x="831" d="M51 104l2 1053q0 41 32 75t73 34h512q41 0 72.5 -34t31.5 -75v-1048q0 -41 -29.5 -75t-70.5 -34h-514q-43 0 -76 31.5t-33 72.5zM178 1745q0 37 82 37q29 0 109 -68l303 -256q20 -19 20 -33q0 -35 -78 -34q-35 0 -116 69l-299 252q-20 18 -21 33zM307 244q0 -37 41 -58 q33 -16 74 -16q98 0 98 74v786q0 70 -112 70q-100 0 -101 -70v-786z" />
<glyph unicode="&#xd3;" horiz-adv-x="831" d="M51 104l2 1053q0 41 32 75t73 34h512q41 0 72.5 -34t31.5 -75v-1048q0 -41 -29.5 -75t-70.5 -34h-514q-43 0 -76 31.5t-33 72.5zM307 244q0 -37 41 -58q33 -16 74 -16q98 0 98 74v786q0 70 -112 70q-100 0 -101 -70v-786zM307 1425q0 14 20 33l299 252q82 70 117 70 q80 0 80 -35q0 -14 -23 -33l-303 -256q-79 -67 -108 -67q-82 0 -82 36z" />
<glyph unicode="&#xd4;" horiz-adv-x="831" d="M51 104l2 1053q0 41 32 75t73 34h512q41 0 72.5 -34t31.5 -75v-1048q0 -41 -29.5 -75t-70.5 -34h-514q-43 0 -76 31.5t-33 72.5zM141 1479q0 18 12 34l230 308q14 18 49 18q18 0 30 -14l234 -309q12 -19 12 -37q0 -27 -23.5 -48.5t-49.5 -21.5q-20 0 -31 16l-180 254 l-181 -258q-12 -14 -30 -14q-27 0 -49.5 22.5t-22.5 49.5zM307 244q0 -37 41 -58q33 -16 74 -16q98 0 98 74v786q0 70 -112 70q-100 0 -101 -70v-786z" />
<glyph unicode="&#xd5;" d="M57 104l2 1053q0 41 32 75t73 34h512q41 0 72.5 -34t31.5 -75v-1048q0 -41 -29.5 -75t-70.5 -34h-514q-43 0 -76 31.5t-33 72.5zM76 1481v88q0 33 25.5 61.5t58.5 28.5h283q68 0 67 -88q18 -43 70 -41h37q43 2 54 63.5t75 61.5q23 0 40 -16.5t17 -39.5v-90 q0 -33 -26.5 -57.5t-59.5 -24.5h-264q-86 0 -86 107q-18 23 -59 22l-39 -2q-37 0 -54.5 -63.5t-80.5 -63.5q-57 0 -58 54zM313 244q0 -37 41 -58q33 -16 74 -16q98 0 98 74v786q0 70 -112 70q-100 0 -101 -70v-786z" />
<glyph unicode="&#xd6;" horiz-adv-x="821" d="M41 104l2 1053q0 41 32 75t73 34h512q41 0 72.5 -34t31.5 -75v-1048q0 -41 -29.5 -75t-70.5 -34h-514q-43 0 -76 31.5t-33 72.5zM65 1473v53q0 51 45 80q39 25 92 24q53 0 92 -24q47 -29 48 -80v-53q0 -51 -48 -80q-39 -25 -92 -25t-92 25q-45 29 -45 80zM297 244 q0 -37 41 -58q33 -16 74 -16q98 0 98 74v786q0 70 -112 70q-100 0 -101 -70v-786zM557 1473v53q0 51 45 80q39 25 92 24q53 0 92 -24q47 -29 47 -80v-53q0 -51 -47 -80q-39 -25 -92 -25t-92 25q-45 29 -45 80z" />
<glyph unicode="&#xd7;" horiz-adv-x="817" d="M27 123l297 297l-297 295l75 76l295 -293l297 297l76 -76l-295 -301l297 -297l-76 -76l-297 299l-297 -297z" />
<glyph unicode="&#xd8;" horiz-adv-x="899" d="M-20 14q0 14 112 217l2 926q0 41 32 75t73 34h473q20 37 45.5 75.5t62.5 38.5q35 0 67 -24.5t32 -59.5q-1 -16 -64 -139v-1048q0 -41 -29.5 -75t-70.5 -34h-527q-14 0 -22 8q-27 -51 -33 -55q-20 -29 -53 -29q-35 0 -67.5 28t-32.5 62zM348 244q0 -37 41 -58 q35 -16 74 -16q98 0 98 74v471l-213 -385v-86zM348 684l207 373q0 43 -104 43q-102 0 -103 -70v-346z" />
<glyph unicode="&#xd9;" horiz-adv-x="843" d="M55 80v1124q0 29 20.5 49.5t49.5 20.5q94 0 94 -70v-960q0 -29 21.5 -50.5t50.5 -21.5l170 2q29 0 49 20.5t20 49.5q0 68 5 184q4 131 4 184q2 104 0 275q-2 211 -2 274q0 117 114 117q53 0 93 -30.5t40 -82.5v-1048q0 -41 -31.5 -75t-72.5 -34h-553q-29 0 -50.5 21.5 t-21.5 50.5zM188 1745q0 37 82 37q29 0 109 -68l303 -256q20 -19 20 -33q0 -35 -78 -34q-35 0 -116 69l-299 252q-20 18 -21 33z" />
<glyph unicode="&#xda;" horiz-adv-x="843" d="M55 80v1124q0 29 20.5 49.5t49.5 20.5q94 0 94 -70v-960q0 -29 21.5 -50.5t50.5 -21.5l170 2q29 0 49 20.5t20 49.5q0 68 5 184q4 131 4 184q2 104 0 275q-2 211 -2 274q0 117 114 117q53 0 93 -30.5t40 -82.5v-1048q0 -41 -31.5 -75t-72.5 -34h-553q-29 0 -50.5 21.5 t-21.5 50.5zM318 1425q0 14 20 33l299 252q82 70 117 70q80 0 80 -35q0 -14 -23 -33l-303 -256q-79 -67 -108 -67q-82 0 -82 36z" />
<glyph unicode="&#xdb;" horiz-adv-x="843" d="M55 80v1124q0 29 20.5 49.5t49.5 20.5q94 0 94 -70v-960q0 -29 21.5 -50.5t50.5 -21.5l170 2q29 0 49 20.5t20 49.5q0 68 5 184q4 131 4 184q2 104 0 275q-2 211 -2 274q0 117 114 117q53 0 93 -30.5t40 -82.5v-1048q0 -41 -31.5 -75t-72.5 -34h-553q-29 0 -50.5 21.5 t-21.5 50.5zM152 1479q0 18 12 34l230 308q14 18 49 18q18 0 30 -14l234 -309q12 -19 12 -37q0 -27 -23.5 -48.5t-49.5 -21.5q-20 0 -31 16l-180 254l-181 -258q-12 -14 -30 -14q-27 0 -49.5 22.5t-22.5 49.5z" />
<glyph unicode="&#xdc;" horiz-adv-x="829" d="M43 80v1124q0 29 20.5 49.5t49.5 20.5q94 0 94 -70v-960q0 -29 21.5 -50.5t50.5 -21.5l170 2q29 0 49 20.5t20 49.5q0 68 5 184q4 131 4 184q2 104 0 275q-2 211 -2 274q0 117 114 117q53 0 93 -30.5t40 -82.5v-1048q0 -41 -31.5 -75t-72.5 -34h-553q-29 0 -50.5 21.5 t-21.5 50.5zM74 1473v53q0 51 45 80q39 25 92 24q53 0 92 -24q47 -29 48 -80v-53q0 -51 -48 -80q-39 -25 -92 -25t-92 25q-45 29 -45 80zM566 1473v53q0 51 45 80q39 25 92 24q53 0 92 -24q47 -29 47 -80v-53q0 -51 -47 -80q-39 -25 -92 -25t-92 25q-45 29 -45 80z" />
<glyph unicode="&#xdd;" horiz-adv-x="802" d="M35 571v633q0 29 20.5 49.5t49.5 20.5q94 0 94 -70v-469q0 -29 21.5 -50t50.5 -21l161 2q78 0 78 69l6 436q0 66 43 89q29 14 101 14q41 0 72.5 -34t31.5 -75v-557q0 -111 -168 -110h-49q-33 2 -43 2v-391q0 -51 -34 -80t-83 -29q-51 0 -88 28.5t-37 75.5v199 q2 143 2 197h-157q-29 0 -50.5 21.5t-21.5 49.5zM305 1425q0 14 20 33l299 252q82 70 117 70q80 0 80 -35q0 -14 -23 -33l-303 -256q-79 -67 -108 -67q-82 0 -82 36z" />
<glyph unicode="&#xde;" horiz-adv-x="808" d="M29 0v1266h157q106 0 107 -172v-52q-2 -33 -2 -43h375q41 0 72.5 -33.5t31.5 -74.5l-2 -477q0 -41 -31.5 -74t-72.5 -33h-302q-74 0 -73 -114v-46q2 -29 2 -38q0 -111 -166 -111h-47q-35 2 -49 2zM283 526q0 -74 125 -73q108 -1 108 73v238q0 49 -45 63q-23 8 -84 9 q-104 0 -104 -72v-238z" />
<glyph unicode="&#xdf;" d="M47 -145v1413l623 -2q41 0 74.5 -32t33.5 -73v-1059q0 -41 -33.5 -71.5t-74.5 -30.5h-291q-70 0 -70 86q0 68 66 82q61 4 123.5 11t62.5 65v258q0 59 -62.5 65t-123.5 8q-66 10 -66 70q0 76 53 92q10 2 117 2q82 0 82 74v74q2 51 2 76q0 90 -19.5 114.5t-103.5 24.5h-94 q-63 -2 -94 -2v-1245h-205z" />
<glyph unicode="&#xe0;" horiz-adv-x="806" d="M39 76v368q0 94 72 95q37 0 199 2q121 2 198 0q0 16 2 48t2 48q0 109 -92 108h-311q-70 0 -70 101q0 29 19.5 50.5t48.5 21.5h543q39 0 75.5 -33t36.5 -74v-811h-647q-31 0 -53.5 23.5t-22.5 52.5zM215 264q0 -100 72 -100l158 -2q63 0 63 106q0 102 -63 103h-158 q-72 0 -72 -107zM244 1409q0 37 82 37q29 0 109 -68l303 -256q20 -19 20 -33q0 -35 -78 -34q-35 0 -116 69l-299 252q-20 18 -21 33z" />
<glyph unicode="&#xe1;" horiz-adv-x="802" d="M43 76v368q0 94 72 95q37 0 199 2q121 2 198 0q0 16 2 48t2 48q0 109 -92 108h-311q-70 0 -70 101q0 29 19.5 50.5t48.5 21.5h543q39 0 75.5 -33t36.5 -74v-811h-647q-31 0 -53.5 23.5t-22.5 52.5zM219 264q0 -100 72 -100l158 -2q63 0 63 106q0 102 -63 103h-158 q-72 0 -72 -107zM295 1089q0 14 20 33l299 252q82 70 117 70q80 0 80 -35q0 -14 -23 -33l-303 -256q-79 -67 -108 -67q-82 0 -82 36z" />
<glyph unicode="&#xe2;" horiz-adv-x="802" d="M39 76v368q0 94 72 95q37 0 199 2q121 2 198 0q0 16 2 48t2 48q0 109 -92 108h-311q-70 0 -70 101q0 29 19.5 50.5t48.5 21.5h543q39 0 75.5 -33t36.5 -74v-811h-647q-31 0 -53.5 23.5t-22.5 52.5zM145 1143q0 18 12 34l230 308q14 18 49 18q18 0 30 -14l234 -309 q12 -19 12 -37q0 -27 -23.5 -48.5t-49.5 -21.5q-20 0 -31 16l-180 254l-181 -258q-12 -14 -30 -14q-27 0 -49.5 22.5t-22.5 49.5zM215 264q0 -100 72 -100l158 -2q63 0 63 106q0 102 -63 103h-158q-72 0 -72 -107z" />
<glyph unicode="&#xe3;" horiz-adv-x="829" d="M35 76v368q0 94 72 95q37 0 199 2q121 2 198 0q0 16 2 48t2 48q0 109 -92 108h-311q-70 0 -70 101q0 29 19.5 50.5t48.5 21.5h543q39 0 75.5 -33t36.5 -74v-811h-647q-31 0 -53.5 23.5t-22.5 52.5zM69 1145v88q0 33 25.5 61.5t58.5 28.5h283q68 0 67 -88q18 -43 70 -41 h37q43 2 54 63.5t75 61.5q23 0 40 -16.5t17 -39.5v-90q0 -33 -26.5 -57.5t-59.5 -24.5h-264q-86 0 -86 107q-18 23 -59 22l-39 -2q-37 0 -54.5 -63.5t-80.5 -63.5q-57 0 -58 54zM211 264q0 -100 72 -100l158 -2q63 0 63 106q0 102 -63 103h-158q-72 0 -72 -107z" />
<glyph unicode="&#xe4;" horiz-adv-x="835" d="M22 76v368q0 94 72 95q37 0 199 2q121 2 198 0q0 16 2 48t2 48q0 109 -92 108h-311q-70 0 -70 101q0 29 19.5 50.5t48.5 21.5h543q39 0 75.5 -33t36.5 -74v-811h-647q-31 0 -53.5 23.5t-22.5 52.5zM63 1137v53q0 51 45 80q39 25 92 24q53 0 92 -24q47 -29 48 -80v-53 q0 -51 -48 -80q-39 -25 -92 -25t-92 25q-45 29 -45 80zM198 264q0 -100 72 -100l158 -2q63 0 63 106q0 102 -63 103h-158q-72 0 -72 -107zM555 1137v53q0 51 45 80q39 25 92 24q53 0 92 -24q47 -29 47 -80v-53q0 -51 -47 -80q-39 -25 -92 -25t-92 25q-45 29 -45 80z" />
<glyph unicode="&#xe5;" horiz-adv-x="821" d="M51 76v368q0 94 72 95q37 0 199 2q121 2 198 0q0 16 2 48t2 48q0 109 -92 108h-311q-70 0 -70 101q0 29 19.5 50.5t48.5 21.5h543q39 0 75.5 -33t36.5 -74v-811h-647q-31 0 -53.5 23.5t-22.5 52.5zM227 264q0 -100 72 -100l158 -2q63 0 63 106q0 102 -63 103h-158 q-72 0 -72 -107zM336 1042v324q0 51 49 51h235q47 0 48 -51v-322q0 -51 -46 -51h-237q-49 0 -49 49zM452 1106q0 -35 54 -35q45 0 45 35v202q0 35 -49 35t-50 -35v-202z" />
<glyph unicode="&#xe6;" horiz-adv-x="1292" d="M45 76v391q0 29 21.5 50.5t50.5 21.5q39 0 198 2q123 2 199 0q0 16 2 48t2 48q0 109 -92 108h-311q-70 0 -70 101q0 29 19.5 50.5t48.5 21.5h1050q29 0 52.5 -24t23.5 -52v-391q0 -29 -21.5 -50.5t-50.5 -21.5q-39 0 -198 -2q-123 -2 -199 0q0 -12 -2 -41v-41 q0 -123 90 -123h311q70 0 70 -100q0 -29 -19.5 -50.5t-48.5 -21.5h-1050q-29 0 -52.5 23.5t-23.5 52.5zM223 264q0 -100 70 -100l158 -2q63 0 63 106q0 102 -63 103h-158q-70 0 -70 -107zM770 543l289 2l2 139q0 29 -20.5 49.5t-48 20.5t-66.5 2h-52q-61 0 -82.5 -25.5 t-21.5 -116.5v-71z" />
<glyph unicode="&#xe7;" horiz-adv-x="780" d="M31 106v703q0 41 31.5 75t72.5 34h543q72 0 72 -82q0 -84 -72 -84h-324q-29 0 -49 -20.5t-20 -49.5v-438q0 -29 28.5 -50.5t59.5 -21.5h311q70 0 70 -90q0 -82 -68 -82h-260v-113q61 -8 119 -45q66 -45 65 -100q0 -80 -94 -123q-72 -31 -162 -31q-25 0 -43 2v93 q39 -12 74 -13q37 0 70 15q43 18 43 51q0 72 -170 69v195q-16 0 -54 -2t-57 -2q-186 0 -186 110z" />
<glyph unicode="&#xe8;" horiz-adv-x="784" d="M24 106v703q0 41 32 75t73 34h542q31 0 53.5 -24t22.5 -52v-369q0 -94 -72 -94q-37 0 -198 -2q-121 -2 -199 0v-133q0 -29 29.5 -50.5t58.5 -21.5h311q72 0 72 -90q0 -82 -70 -82h-542q-39 0 -76 33t-37 73zM225 1409q0 37 82 37q29 0 109 -68l303 -256q20 -19 20 -33 q0 -35 -78 -34q-35 0 -116 69l-299 252q-20 18 -21 33zM278 543l289 2l2 139q0 29 -19.5 49.5t-47 20.5t-66.5 2h-53q-59 0 -82 -25.5t-23 -116.5v-71z" />
<glyph unicode="&#xe9;" horiz-adv-x="800" d="M24 106v703q0 41 32 75t73 34h542q31 0 53.5 -24t22.5 -52v-369q0 -94 -72 -94q-37 0 -198 -2q-121 -2 -199 0v-133q0 -29 29.5 -50.5t58.5 -21.5h311q72 0 72 -90q0 -82 -70 -82h-542q-39 0 -76 33t-37 73zM278 543l289 2l2 139q0 29 -19.5 49.5t-47 20.5t-66.5 2h-53 q-59 0 -82 -25.5t-23 -116.5v-71zM293 1089q0 14 20 33l299 252q82 70 117 70q80 0 80 -35q0 -14 -23 -33l-303 -256q-79 -67 -108 -67q-82 0 -82 36z" />
<glyph unicode="&#xea;" horiz-adv-x="780" d="M27 106v703q0 41 32 75t73 34h542q31 0 53.5 -24t22.5 -52v-369q0 -94 -72 -94q-37 0 -198 -2q-121 -2 -199 0v-133q0 -29 29.5 -50.5t58.5 -21.5h311q72 0 72 -90q0 -82 -70 -82h-542q-39 0 -76 33t-37 73zM150 1143q0 18 12 34l230 308q14 18 49 18q18 0 30 -14 l234 -309q12 -19 12 -37q0 -27 -23.5 -48.5t-49.5 -21.5q-20 0 -31 16l-180 254l-181 -258q-12 -14 -30 -14q-27 0 -49.5 22.5t-22.5 49.5zM281 543l289 2l2 139q0 29 -19.5 49.5t-47 20.5t-66.5 2h-53q-59 0 -82 -25.5t-23 -116.5v-71z" />
<glyph unicode="&#xeb;" horiz-adv-x="819" d="M6 106v703q0 41 32 75t73 34h542q31 0 53.5 -24t22.5 -52v-369q0 -94 -72 -94q-37 0 -198 -2q-121 -2 -199 0v-133q0 -29 29.5 -50.5t58.5 -21.5h311q72 0 72 -90q0 -82 -70 -82h-542q-39 0 -76 33t-37 73zM63 1137v53q0 51 45 80q39 25 92 24q53 0 92 -24q47 -29 48 -80 v-53q0 -51 -48 -80q-39 -25 -92 -25t-92 25q-45 29 -45 80zM260 543l289 2l2 139q0 29 -19.5 49.5t-47 20.5t-66.5 2h-53q-59 0 -82 -25.5t-23 -116.5v-71zM555 1137v53q0 51 45 80q39 25 92 24q53 0 92 -24q47 -29 47 -80v-53q0 -51 -47 -80q-39 -25 -92 -25t-92 25 q-45 29 -45 80z" />
<glyph unicode="&#xec;" horiz-adv-x="669" d="M119 1409q0 37 82 37q29 0 109 -68l303 -256q20 -19 20 -33q0 -35 -78 -34q-35 0 -116 69l-299 252q-20 18 -21 33zM252 0v813q0 51 38 82t89 31q53 0 90 -31t37 -82l2 -813h-256z" />
<glyph unicode="&#xed;" horiz-adv-x="536" d="M59 1089q0 14 20 33l299 252q82 70 117 70q80 0 80 -35q0 -14 -23 -33l-303 -256q-79 -67 -108 -67q-82 0 -82 36zM63 0v813q0 51 38 82t89 31q53 0 90 -31t37 -82l2 -813h-256z" />
<glyph unicode="&#xee;" horiz-adv-x="624" d="M23 1143q0 18 12 34l230 308q14 18 49 18q18 0 30 -14l234 -309q12 -19 12 -37q0 -27 -23.5 -48.5t-49.5 -21.5q-20 0 -31 16l-180 254l-181 -258q-12 -14 -30 -14q-27 0 -49.5 22.5t-22.5 49.5zM172 0v813q0 51 38 82t89 31q53 0 90 -31t37 -82l2 -813h-256z" />
<glyph unicode="&#xef;" horiz-adv-x="835" d="M63 1137v53q0 51 45 80q39 25 92 24q53 0 92 -24q47 -29 48 -80v-53q0 -51 -48 -80q-39 -25 -92 -25t-92 25q-45 29 -45 80zM278 0v813q0 51 38 82t89 31q53 0 90 -31t37 -82l2 -813h-256zM555 1137v53q0 51 45 80q39 25 92 24q53 0 92 -24q47 -29 47 -80v-53 q0 -51 -47 -80q-39 -25 -92 -25t-92 25q-45 29 -45 80z" />
<glyph unicode="&#xf0;" horiz-adv-x="968" d="M33 113v639q0 41 29.5 74.5t70.5 33.5h383v74q-14 0 -43 -2h-37q-96 0 -96 96q0 63 63 76q14 2 113 2q0 86 14 117q25 49 105 49q78 0 104 -47q18 -35 19 -119q12 0 37 2h36q106 0 107 -92q0 -84 -102 -84h-41q-27 2 -37 2l-4 -823q0 -41 -36 -74t-77 -33h-504 q-41 0 -72.5 34t-31.5 75zM287 240q0 -70 110 -70q103 0 103 70v376q0 37 -38 55.5t-77 18.5q-98 0 -98 -74v-376z" />
<glyph unicode="&#xf1;" horiz-adv-x="825" d="M39 0v918h617q43 0 73.5 -34t30.5 -75v-700q0 -111 -158 -111h-49q-33 2 -49 2l2 682q0 70 -110 70q-102 0 -103 -70v-682h-254zM63 1145v88q0 33 25.5 61.5t58.5 28.5h283q68 0 67 -88q18 -43 70 -41h37q43 2 54 63.5t75 61.5q23 0 40 -16.5t17 -39.5v-90 q0 -33 -26.5 -57.5t-59.5 -24.5h-264q-86 0 -86 107q-18 23 -59 22l-39 -2q-37 0 -54.5 -63.5t-80.5 -63.5q-57 0 -58 54z" />
<glyph unicode="&#xf2;" horiz-adv-x="806" d="M41 104l2 705q0 41 32 75t73 34h512q41 0 72.5 -34t31.5 -75v-700q0 -41 -29.5 -75t-70.5 -34h-514q-41 0 -75 31.5t-34 72.5zM215 1409q0 37 82 37q29 0 109 -68l303 -256q20 -19 20 -33q0 -35 -78 -34q-35 0 -116 69l-299 252q-20 18 -21 33zM297 244q0 -37 41 -58 q35 -16 74 -16q98 0 98 74v438q0 70 -110 70q-102 0 -103 -70v-438z" />
<glyph unicode="&#xf3;" horiz-adv-x="802" d="M39 104l2 705q0 41 32 75t73 34h512q41 0 72.5 -34t31.5 -75v-700q0 -41 -29.5 -75t-70.5 -34h-514q-41 0 -75 31.5t-34 72.5zM295 244q0 -37 41 -58q35 -16 74 -16q98 0 98 74v438q0 70 -110 70q-102 0 -103 -70v-438zM301 1089q0 14 20 33l299 252q82 70 117 70 q80 0 80 -35q0 -14 -23 -33l-303 -256q-79 -67 -108 -67q-82 0 -82 36z" />
<glyph unicode="&#xf4;" horiz-adv-x="804" d="M41 104l2 705q0 41 32 75t73 34h512q41 0 72.5 -34t31.5 -75v-700q0 -41 -29.5 -75t-70.5 -34h-514q-41 0 -75 31.5t-34 72.5zM137 1143q0 18 12 34l230 308q14 18 49 18q18 0 30 -14l234 -309q12 -19 12 -37q0 -27 -23.5 -48.5t-49.5 -21.5q-20 0 -31 16l-180 254 l-181 -258q-12 -14 -30 -14q-27 0 -49.5 22.5t-22.5 49.5zM297 244q0 -37 41 -58q35 -16 74 -16q98 0 98 74v438q0 70 -110 70q-102 0 -103 -70v-438z" />
<glyph unicode="&#xf5;" horiz-adv-x="831" d="M43 104l2 705q0 41 32 75t73 34h512q41 0 72.5 -34t31.5 -75v-700q0 -41 -29.5 -75t-70.5 -34h-514q-41 0 -75 31.5t-34 72.5zM67 1145v88q0 33 25.5 61.5t58.5 28.5h283q68 0 67 -88q18 -43 70 -41h37q43 2 54 63.5t75 61.5q23 0 40 -16.5t17 -39.5v-90 q0 -33 -26.5 -57.5t-59.5 -24.5h-264q-86 0 -86 107q-18 23 -59 22l-39 -2q-37 0 -54.5 -63.5t-80.5 -63.5q-57 0 -58 54zM299 244q0 -37 41 -58q35 -16 74 -16q98 0 98 74v438q0 70 -110 70q-102 0 -103 -70v-438z" />
<glyph unicode="&#xf6;" horiz-adv-x="841" d="M35 104l2 705q0 41 32 75t73 34h512q41 0 72.5 -34t31.5 -75v-700q0 -41 -29.5 -75t-70.5 -34h-514q-41 0 -75 31.5t-34 72.5zM65 1137v53q0 51 45 80q39 25 92 24q53 0 92 -24q47 -29 48 -80v-53q0 -51 -48 -80q-39 -25 -92 -25t-92 25q-45 29 -45 80zM291 244 q0 -37 41 -58q35 -16 74 -16q98 0 98 74v438q0 70 -110 70q-102 0 -103 -70v-438zM557 1137v53q0 51 45 80q39 25 92 24q53 0 92 -24q47 -29 47 -80v-53q0 -51 -47 -80q-39 -25 -92 -25t-92 25q-45 29 -45 80z" />
<glyph unicode="&#xf7;" horiz-adv-x="751" d="M25 483q0 29 20.5 53.5t48.5 24.5h582q69 0 69 -100q0 -29 -19 -50.5t-48 -21.5h-586q-68 0 -67 94zM268 176q0 109 154 109q100 0 100 -168q0 -109 -153 -109q-100 0 -101 168zM268 831q0 109 154 109q100 0 100 -168q0 -109 -153 -108q-100 0 -101 167z" />
<glyph unicode="&#xf8;" horiz-adv-x="868" d="M27 -82q0 27 55 125q-23 20 -23 61l2 705q0 41 32 75t73 34h405l99 176q18 33 59 32q37 0 69.5 -24.5t32.5 -59.5q1 -14 -81 -157q33 -29 32 -76v-700q0 -41 -29.5 -75t-70.5 -34h-426l-74 -131q-18 -33 -53 -33t-68.5 24.5t-33.5 57.5zM315 461l162 289q-6 4 -37 4 q-125 0 -125 -72v-221zM358 184q20 -14 58 -14q112 0 112 74v243z" />
<glyph unicode="&#xf9;" horiz-adv-x="811" d="M47 4v918q14 0 47 2h48q160 0 159 -111v-573q0 -70 103 -70q111 0 110 70l-2 682q14 0 49 2h47q160 0 160 -111v-700q0 -41 -31.5 -75t-72.5 -34h-617zM217 1409q0 37 82 37q29 0 109 -68l303 -256q20 -19 20 -33q0 -35 -78 -34q-35 0 -116 69l-299 252q-20 18 -21 33z " />
<glyph unicode="&#xfa;" horiz-adv-x="788" d="M28 4v918q14 0 47 2h48q160 0 159 -111v-573q0 -70 103 -70q111 0 110 70l-2 682q14 0 49 2h47q160 0 160 -111v-700q0 -41 -31.5 -75t-72.5 -34h-617zM266 1089q0 14 20 33l299 252q82 70 117 70q80 0 80 -35q0 -14 -23 -33l-303 -256q-79 -67 -108 -67q-82 0 -82 36z " />
<glyph unicode="&#xfb;" horiz-adv-x="808" d="M47 4v918q14 0 47 2h48q160 0 159 -111v-573q0 -70 103 -70q111 0 110 70l-2 682q14 0 49 2h47q160 0 160 -111v-700q0 -41 -31.5 -75t-72.5 -34h-617zM139 1143q0 18 12 34l230 308q14 18 49 18q18 0 30 -14l234 -309q12 -19 12 -37q0 -27 -23.5 -48.5t-49.5 -21.5 q-20 0 -31 16l-180 254l-181 -258q-12 -14 -30 -14q-27 0 -49.5 22.5t-22.5 49.5z" />
<glyph unicode="&#xfc;" horiz-adv-x="860" d="M63 4v918q14 0 47 2h48q160 0 159 -111v-573q0 -70 103 -70q111 0 110 70l-2 682q14 0 49 2h47q160 0 160 -111v-700q0 -41 -31.5 -75t-72.5 -34h-617zM70 1137v53q0 51 45 80q39 25 92 24q53 0 92 -24q47 -29 48 -80v-53q0 -51 -48 -80q-39 -25 -92 -25t-92 25 q-45 29 -45 80zM562 1137v53q0 51 45 80q39 25 92 24q53 0 92 -24q47 -29 47 -80v-53q0 -51 -47 -80q-39 -25 -92 -25t-92 25q-45 29 -45 80z" />
<glyph unicode="&#xfd;" horiz-adv-x="804" d="M39 -319q0 29 20.5 53t49.5 24h311q25 0 62.5 27t37.5 49v166l-374 4q-41 0 -73 34t-32 75v700q0 41 30 75t71 34q152 0 151 -109l2 -573q0 -70 111 -70q102 0 102 70v573q0 109 154 109q41 0 70.5 -34t29.5 -75v-1120q0 -41 -36 -74t-76 -33h-543q-68 0 -68 95z M346 1089q0 14 20 33l299 252q82 70 117 70q80 0 80 -35q0 -14 -23 -33l-303 -256q-79 -67 -108 -67q-82 0 -82 36z" />
<glyph unicode="&#xfe;" horiz-adv-x="796" d="M41 -307v1458q0 47 38 75.5t87 28.5q51 0 84 -28.5t33 -79.5l2 -270h377q41 0 72.5 -34t31.5 -75v-659q0 -41 -29.5 -75t-70.5 -34h-383v-303q0 -51 -33 -80t-84 -29q-49 0 -87 29t-38 76zM299 244q0 -37 41 -58q35 -16 74 -16q98 0 98 74v397q0 70 -111 70 q-102 0 -102 -70v-397z" />
<glyph unicode="&#xff;" d="M31 -319q0 29 20.5 53t49.5 24h311q25 0 62.5 27t37.5 49v166l-374 4q-41 0 -73 34t-32 75v700q0 41 30 75t71 34q152 0 151 -109l2 -573q0 -70 111 -70q102 0 102 70v573q0 109 154 109q41 0 70.5 -34t29.5 -75v-1120q0 -41 -36 -74t-76 -33h-543q-68 0 -68 95zM65 1137 v53q0 51 45 80q39 25 92 24q53 0 92 -24q47 -29 48 -80v-53q0 -51 -48 -80q-39 -25 -92 -25t-92 25q-45 29 -45 80zM557 1137v53q0 51 45 80q39 25 92 24q53 0 92 -24q47 -29 47 -80v-53q0 -51 -47 -80q-39 -25 -92 -25t-92 25q-45 29 -45 80z" />
<glyph unicode="&#x152;" horiz-adv-x="1247" d="M31 104l2 1053q0 41 31.5 75t72.5 34h1024q74 0 74 -82q0 -84 -70 -84h-338q-27 0 -48 -20.5t-21 -49.5v-217q0 -29 29.5 -50.5t58.5 -21.5l317 -2q29 0 50.5 -19t21.5 -48q0 -98 -70 -99l-338 -2q-27 0 -48 -20.5t-21 -48.5v-258q0 -29 29.5 -50.5t58.5 -21.5l321 -2 q68 0 68 -84q0 -86 -70 -86h-1026q-41 0 -74.5 31.5t-33.5 72.5zM287 244q0 -37 41 -58q35 -16 73 -16q99 0 99 74v786q0 70 -111 70q-102 0 -102 -70v-786z" />
<glyph unicode="&#x153;" horiz-adv-x="1294" d="M49 104l2 705q0 41 32 75t73 34h1009q29 0 52.5 -24t23.5 -52v-391q0 -29 -21.5 -50.5t-50.5 -21.5q-39 0 -198 -2q-123 -2 -199 0q0 -12 -2 -41v-41q0 -123 90 -123h311q70 0 70 -100q0 -29 -19.5 -50.5t-47.5 -21.5h-1016q-41 0 -75 31.5t-34 72.5zM305 244 q0 -37 41 -58q33 -16 74 -16q98 0 98 74v438q0 70 -110 70q-102 0 -103 -70v-438zM772 543l289 2l2 139q0 29 -20.5 49.5t-48 20.5t-66.5 2h-51q-61 0 -83 -25.5t-22 -116.5v-71z" />
<glyph unicode="&#x178;" horiz-adv-x="792" d="M22 571v633q0 29 20.5 49.5t49.5 20.5q94 0 94 -70v-469q0 -29 21.5 -50t50.5 -21l161 2q78 0 78 69l6 436q0 66 43 89q29 14 101 14q41 0 72.5 -34t31.5 -75v-557q0 -111 -168 -110h-49q-33 2 -43 2v-391q0 -51 -34 -80t-83 -29q-51 0 -88 28.5t-37 75.5v199 q2 143 2 197h-157q-29 0 -50.5 21.5t-21.5 49.5zM61 1473v53q0 51 45 80q39 25 92 24q53 0 92 -24q47 -29 48 -80v-53q0 -51 -48 -80q-39 -25 -92 -25t-92 25q-45 29 -45 80zM553 1473v53q0 51 45 80q39 25 92 24q53 0 92 -24q47 -29 47 -80v-53q0 -51 -47 -80 q-39 -25 -92 -25t-92 25q-45 29 -45 80z" />
<glyph unicode="&#x2c6;" horiz-adv-x="487" d="M-45 1479q0 18 12 34l230 308q14 18 49 18q18 0 30 -14l234 -309q12 -19 12 -37q0 -27 -23.5 -48.5t-49.5 -21.5q-20 0 -31 16l-180 254l-181 -258q-12 -14 -30 -14q-27 0 -49.5 22.5t-22.5 49.5z" />
<glyph unicode="&#x2dc;" horiz-adv-x="608" d="M-74 1481v88q0 33 25.5 61.5t58.5 28.5h283q68 0 67 -88q18 -43 70 -41h37q43 2 54 63.5t75 61.5q23 0 40 -16.5t17 -39.5v-90q0 -33 -26.5 -57.5t-59.5 -24.5h-264q-86 0 -86 107q-18 23 -59 22l-39 -2q-37 0 -54.5 -63.5t-80.5 -63.5q-57 0 -58 54z" />
<glyph unicode="&#x2000;" horiz-adv-x="919" />
<glyph unicode="&#x2001;" horiz-adv-x="1839" />
<glyph unicode="&#x2002;" horiz-adv-x="919" />
<glyph unicode="&#x2003;" horiz-adv-x="1839" />
<glyph unicode="&#x2004;" horiz-adv-x="613" />
<glyph unicode="&#x2005;" horiz-adv-x="459" />
<glyph unicode="&#x2006;" horiz-adv-x="306" />
<glyph unicode="&#x2007;" horiz-adv-x="306" />
<glyph unicode="&#x2008;" horiz-adv-x="229" />
<glyph unicode="&#x2009;" horiz-adv-x="367" />
<glyph unicode="&#x200a;" horiz-adv-x="102" />
<glyph unicode="&#x2010;" horiz-adv-x="851" d="M59 483q0 29 20.5 53.5t49.5 24.5h582q69 0 69 -100q0 -29 -19.5 -50.5t-47.5 -21.5h-586q-68 0 -68 94z" />
<glyph unicode="&#x2011;" horiz-adv-x="851" d="M59 483q0 29 20.5 53.5t49.5 24.5h582q69 0 69 -100q0 -29 -19.5 -50.5t-47.5 -21.5h-586q-68 0 -68 94z" />
<glyph unicode="&#x2012;" horiz-adv-x="851" d="M59 483q0 29 20.5 53.5t49.5 24.5h582q69 0 69 -100q0 -29 -19.5 -50.5t-47.5 -21.5h-586q-68 0 -68 94z" />
<glyph unicode="&#x2013;" horiz-adv-x="1058" d="M59 483q0 29 20.5 53.5t49.5 24.5l789 2q69 0 69 -100q0 -29 -19.5 -50.5t-47.5 -21.5l-793 -2q-68 0 -68 94z" />
<glyph unicode="&#x2014;" horiz-adv-x="1159" d="M59 483q0 29 20.5 53.5t49.5 24.5h889q69 0 69 -100q0 -29 -19 -50.5t-48 -21.5h-893q-68 0 -68 94z" />
<glyph unicode="&#x2018;" horiz-adv-x="405" d="M49 911v297q0 68 94 68q61 0 74 -59q4 -14 4 -109q39 0 72 -33t43 -74v-47q0 -111 -182 -110q-104 0 -105 67z" />
<glyph unicode="&#x2019;" horiz-adv-x="397" d="M51 1112v47q0 111 182 111q104 0 105 -68v-297q0 -68 -94 -67q-61 0 -76 59q-2 14 -2 109q-39 0 -73 32.5t-42 73.5z" />
<glyph unicode="&#x201a;" horiz-adv-x="397" d="M43 109v47q0 111 182 110q104 0 105 -67v-297q0 -68 -94 -68q-61 0 -76 60q-2 14 -2 108q-41 0 -74 33t-41 74z" />
<glyph unicode="&#x201c;" horiz-adv-x="774" d="M49 911v297q0 68 94 68q61 0 74 -59q4 -14 4 -109q41 0 74 -25.5t41 -64.5v-64q0 -111 -182 -110q-104 0 -105 67zM418 911v297q0 68 94 68q61 0 74 -59q4 -14 4 -109q39 0 71.5 -33t43.5 -74v-47q0 -111 -183 -110q-104 0 -104 67z" />
<glyph unicode="&#x201d;" horiz-adv-x="765" d="M51 1112v47q0 111 182 111q104 0 105 -68v-297q0 -68 -94 -67q-61 0 -76 59q-2 14 -2 109q-39 0 -73 32.5t-42 73.5zM420 1112v47q0 111 182 111q104 0 105 -68v-297q0 -68 -95 -67q-61 0 -75 59q-2 14 -2 109q-39 0 -73 32.5t-42 73.5z" />
<glyph unicode="&#x201e;" horiz-adv-x="765" d="M43 109v47q0 111 182 110q104 0 105 -67v-297q0 -68 -94 -68q-61 0 -76 60q-2 14 -2 108q-41 0 -74 33t-41 74zM412 109v47q0 111 182 110q104 0 104 -67v-297q0 -68 -94 -68q-61 0 -76 60q-2 14 -2 108q-41 0 -73.5 33t-40.5 74z" />
<glyph unicode="&#x2022;" horiz-adv-x="778" d="M37 709v161q0 111 81 203t191 92h146q111 0 191.5 -92t80.5 -203v-161q0 -113 -81 -204t-191 -91h-146q-111 0 -191.5 91t-80.5 204z" />
<glyph unicode="&#x2026;" horiz-adv-x="1335" d="M53 156q0 109 154 108q100 0 100 -168q0 -109 -153 -108q-100 0 -101 168zM545 156q0 109 153 108q101 0 101 -168q0 -109 -154 -108q-100 0 -100 168zM1016 156q0 109 153 108q101 0 101 -168q0 -109 -154 -108q-100 0 -100 168z" />
<glyph unicode="&#x202f;" horiz-adv-x="367" />
<glyph unicode="&#x2039;" horiz-adv-x="542" d="M37 606q0 16 20 37q31 29 31 31l313 434q10 4 21 4q18 0 49 -21.5t31 -39.5q0 -16 -21 -45q-29 -41 -30 -43l-183 -359l183 -358q2 -2 30 -43q21 -29 21 -45q0 -18 -31 -40t-49 -22q-10 0 -21 4l-313 435q-6 2 -28.5 32.5t-22.5 38.5z" />
<glyph unicode="&#x203a;" horiz-adv-x="542" d="M35 158q0 16 20 45q29 41 31 43l182 358l-182 359q-2 2 -31 43q-20 29 -20 45q0 18 30.5 39.5t49.5 21.5q10 0 20 -4l314 -434q0 -2 30 -31q21 -21 21 -37l-365 -506q-10 -4 -20 -4q-18 0 -49 21.5t-31 40.5z" />
<glyph unicode="&#x205f;" horiz-adv-x="459" />
<glyph unicode="&#x20ac;" horiz-adv-x="899" d="M18 494q0 63 39 79q23 10 95 11v94q-74 0 -93 6q-41 16 -41 76q0 63 39 80q23 10 95 10v307q0 41 31.5 75t72.5 34h543q29 0 50 -21.5t21 -50.5q0 -94 -71 -94h-324q-27 0 -48 -20.5t-21 -49.5v-180h284q29 0 49.5 -24.5t20.5 -53.5q0 -94 -68 -94h-286v-94h182 q72 0 71 -90q0 -82 -69 -82h-184v-168q0 -29 29.5 -50.5t58.5 -21.5h311q69 0 69 -100q0 -29 -19 -50.5t-48 -21.5h-543q-41 0 -76.5 33t-35.5 73v306q-74 0 -93 6q-41 16 -41 76z" />
<glyph unicode="&#x2122;" horiz-adv-x="1128" d="M45 1217q0 47 39 47h334q39 0 39 -47q0 -53 -70 -54q-12 0 -35 2h-30v-559q0 -61 -70 -61q-68 0 -68 61v559h-32q-23 -2 -35 -2q-72 0 -72 54zM496 1196q0 59 84 59q33 0 57 -59l141 -354l144 354q27 63 75 64q27 0 46.5 -18.5t19.5 -45.5v-598q0 -61 -68 -61 q-74 0 -73 53l2 352l-148 -364l-139 370v-350q0 -61 -70 -61t-69 53z" />
<glyph unicode="&#xe000;" horiz-adv-x="901" d="M0 0v901h901v-901h-901z" />
</font>
</defs>
</svg>
